<svg xmlns="http://www.w3.org/2000/svg" xmlns:xlink="http://www.w3.org/1999/xlink" fill="none" version="1.1" width="32" height="32" viewBox="0 0 32 32"><g><g><path d="M5.7080078125 7.5C5.708007812500001 5.290861000676825 7.498868813176827 3.5 9.7080078125 3.5L21.7080078125 3.5C23.917146811823173 3.5 25.7080078125 5.290861000676827 25.7080078125 7.5L25.7080078125 24.5C25.7080078125 26.709138999323173 23.917146811823173 28.5 21.7080078125 28.5L9.7080078125 28.5C7.498868813176827 28.5 5.7080078125 26.709138999323173 5.7080078125 24.5Z" fill="#000000" fill-opacity="0.30000001192092896"/></g><g><path d="M3.7080078125 7.5C3.7080078125000004 4.186291501015239 6.39429931351524 1.5 9.7080078125 1.5L21.7080078125 1.5C25.02171631148476 1.5 27.7080078125 4.18629150101524 27.7080078125 7.5L27.7080078125 24.5C27.7080078125 27.81370849898476 25.02171631148476 30.5 21.7080078125 30.5L9.7080078125 30.5C6.39429931351524 30.5 3.7080078125 27.81370849898476 3.7080078125 24.5Z" fill-opacity="0" stroke-opacity="1" stroke="#000000" fill="none" stroke-width="1.5"/></g><g transform="matrix(0,1,-1,0,44.5,-16.5)"><path d="M30.5,13.25L35.5,13.25Q35.57387,13.25,35.64632,13.264410999999999Q35.71877,13.278822,35.78701,13.30709Q35.85526,13.335359,35.91668,13.376398Q35.9781,13.417437,36.03033,13.46967Q36.08256,13.521903,36.123599999999996,13.583322Q36.16464,13.644742,36.19291,13.712987Q36.221180000000004,13.781233,36.23559,13.853682Q36.25,13.9261315,36.25,14Q36.25,14.0738685,36.23559,14.146318Q36.221180000000004,14.218767,36.19291,14.287013Q36.16464,14.355258,36.123599999999996,14.416678Q36.08256,14.478097,36.03033,14.53033Q35.9781,14.582563,35.91668,14.623602Q35.85526,14.664641,35.78701,14.69291Q35.71877,14.721178,35.64632,14.735589000000001Q35.57387,14.75,35.5,14.75L30.5,14.75Q30.4261315,14.75,30.353682,14.735589000000001Q30.281233,14.721178,30.212987,14.69291Q30.144742,14.664641,30.083322,14.623602Q30.021903000000002,14.582563,29.96967,14.53033Q29.917437,14.478097,29.876398000000002,14.416678Q29.835359,14.355258,29.80709,14.287013Q29.778822,14.218767,29.764411,14.146318Q29.75,14.0738685,29.75,14Q29.75,13.9261315,29.764411,13.853682Q29.778822,13.781233,29.80709,13.712987Q29.835359,13.644742,29.876398000000002,13.583322Q29.917437,13.521903,29.96967,13.46967Q30.021903000000002,13.417437,30.083322,13.376398Q30.144742,13.335359,30.212987,13.30709Q30.281233,13.278822,30.353682,13.264410999999999Q30.4261315,13.25,30.5,13.25Z" fill-rule="evenodd" fill="#000000" fill-opacity="1"/></g></g></svg>