<svg xmlns="http://www.w3.org/2000/svg" xmlns:xlink="http://www.w3.org/1999/xlink" fill="none" version="1.1" width="32" height="32" viewBox="0 0 32 32"><g><g><path d="M7 5.5C7 4.119288125423017 8.119288125423017 3 9.5 3L22.5 3C23.880711874576985 3 25 4.119288125423017 25 5.5L25 26.5C25 27.880711874576985 23.880711874576985 29 22.5 29L9.5 29C8.119288125423017 29 7 27.880711874576985 7 26.5Z" fill="#000000" fill-opacity="0.30000001192092896"/></g><g><path d="M5 5.5C5.000000000000001 3.014718625761429 7.0147186257614305 1 9.5 1L22.5 1C24.98528137423857 1 27 3.01471862576143 27 5.5L27 26.5C27 28.98528137423857 24.98528137423857 31 22.5 31L9.5 31C7.0147186257614305 31 5 28.98528137423857 5 26.5Z" fill-opacity="0" stroke-opacity="1" stroke="#000000" fill="none" stroke-width="1.5"/></g></g></svg>