<svg xmlns="http://www.w3.org/2000/svg" xmlns:xlink="http://www.w3.org/1999/xlink" fill="none" version="1.1" width="32" height="32" viewBox="0 0 32 32"><g><g><g><ellipse cx="15.999999046325684" cy="16" rx="14.999999046325684" ry="15" fill-opacity="0" stroke-opacity="0.8999999761581421" stroke="#000000" fill="none" stroke-width="1.5"/></g><g><path d="M29.42843178125,3.251741703125Q30.77437078125,4.6751197031250005,31.763040781249998,6.361155703125L31.76335078125,6.361705703125001Q31.86637078125,6.537395703125,31.86637078125,6.741055703124999Q31.86637078125,6.814925703125001,31.85196078125,6.8873757031250005Q31.83754078125,6.959825703125,31.80928078125,7.028065703125Q31.78101078125,7.096315703125001,31.73997078125,7.157735703125001Q31.69893078125,7.219155703125001,31.64670078125,7.271385703125Q31.59446078125,7.323615703125,31.53304078125,7.364655703125Q31.47162078125,7.405695703125,31.40338078125,7.433965703125001Q31.33513078125,7.462235703125,31.26268078125,7.4766457031249995Q31.19024078125,7.491055703124999,31.11637078125,7.491055703124999Q31.01827078125,7.491055703124999,30.92347078125,7.465825703125001Q30.82867078125,7.440595703125,30.74355078125,7.391825703125Q30.65843078125,7.343065703125,30.58871078125,7.274045703125Q30.51900078125,7.205025703125,30.46938078125,7.120405703125Q29.56716678125,5.581665703125,28.33858678125,4.282390703125L28.33836278125,4.282153703125Q28.23959878125,4.177716703125,28.18644978125,4.044156703125Q28.13330078125,3.910597703125,28.13330078125,3.766845703125Q28.13330078125,3.692977203125,28.14771178125,3.620527703125Q28.16212278125,3.548078703125,28.19039078125,3.479832703125Q28.21865978125,3.411587703125,28.259698781250002,3.350167703125Q28.30073778125,3.288748703125,28.35297078125,3.236515703125Q28.405203781250002,3.184282703125,28.46662278125,3.143243703125Q28.52804278125,3.102204703125,28.59628778125,3.073935703125Q28.66453378125,3.045667703125,28.73698278125,3.031256703125Q28.80943228125,3.016845703125,28.88330078125,3.016845703125Q29.03793878125,3.016845703125,29.17996478125,3.078012703125Q29.32199078125,3.139179703125,29.42823878125,3.251537703125L29.42827578125,3.251576703125L29.42843178125,3.251741703125Z" fill-rule="evenodd" fill="#000000" fill-opacity="0.8999999761581421"/></g><g><ellipse cx="16" cy="16" rx="13" ry="13" fill="#000000" fill-opacity="0.30000001192092896"/></g></g></g></svg>