<svg xmlns="http://www.w3.org/2000/svg" xmlns:xlink="http://www.w3.org/1999/xlink" fill="none" version="1.1" width="268"
    height="128" viewBox="0 0 268 128">
    <path
        d="M241.708,116.50847878417969L221.966,91.83480278417969C221.932,91.79038078417969,221.878,91.76415278417969,221.821,91.76415278417969L216.732,91.76415278417969C216.631,91.76415278417969,216.549,91.84379778417969,216.549,91.94235778417969C216.549,91.98174678417969,216.562,92.01997978417968,216.587,92.05119278417969L226.049,104.50837878417968L216.589,116.51117878417969C216.559,116.54817878417968,216.545,116.59527878417968,216.55,116.6422787841797C216.556,116.6893787841797,216.58,116.73247878417969,216.618,116.76197878417969C216.65,116.78727878417969,216.69,116.8014787841797,216.732,116.8014787841797L221.821,116.80077878417968C221.877,116.80077878417968,221.929,116.77597878417969,221.964,116.73337878417969L229.088,107.52897878417969L236.458,116.73827878417968C236.492,116.77807878417968,236.543,116.80117878417968,236.597,116.80117878417968L241.567,116.80107878417968C241.668,116.80107878417968,241.75,116.72117878417968,241.75,116.62267878417968C241.75,116.58087878417969,241.735,116.54047878417968,241.708,116.50847878417969ZM230.435,99.53054878417969L232.703,102.4076787841797C232.802,102.53257878417969,232.99,102.53497878417969,233.092,102.4127787841797L241.71,92.05429478417969C241.74,92.01738378417969,241.754,91.97021078417968,241.749,91.92316778417968C241.744,91.87611578417969,241.719,91.83304178417968,241.682,91.80342078417969C241.649,91.7780017841797,241.609,91.76415278417969,241.567,91.76415278417969L236.597,91.76415278417969C236.542,91.76415278417969,236.49,91.78824078417969,236.455,91.82987378417968L230.437,99.21786878417969C230.363,99.30865878417968,230.362,99.43859878417969,230.435,99.53054878417969ZM54.2072,108.73257878417968C54.206900000000005,108.72817878417969,54.2067,108.72377878417969,54.2067,108.71927878417969C54.2067,108.62077878417969,54.2886,108.54087878417968,54.3896,108.54087878417968L58.8148,108.54087878417968C58.9089,108.54087878417968,58.9876,108.6105787841797,58.9968,108.70197878417969L59.0882,109.61957878417968Q59.3965,111.72007878417969,61.2331,112.63897878417968Q62.5675,113.58097878417969,66.9285,113.58107878417968Q70.80799999999999,113.58107878417968,72.5577,112.53827878417968Q74.2639,111.52147878417969,74.2639,109.90987878417968Q74.2639,108.28237878417968,72.5199,107.68497878417969Q71.2201,107.05157878417968,65.6935,106.28967878417969Q60.4724,105.50947878417969,57.654399999999995,103.70927878417969Q54.7885,101.87817878417968,54.7885,98.67021878417968Q54.7885,95.33217878417969,57.771100000000004,93.28398878417968Q60.1741,91.25629318417968,66.1301,91.25629318417968Q72.001,91.07549478417968,74.9802,93.08641878417968Q77.98060000000001,95.2923487841797,78.3803,98.58098878417968L78.3808,98.58611878417969L78.4476,99.31495878417968C78.4481,99.32024878417968,78.4483,99.32555878417969,78.4483,99.33086878417969C78.4483,99.42941878417969,78.3665,99.50931878417968,78.2655,99.50931878417968L74.0078,99.50931878417968C73.9148,99.50931878417968,73.8366,99.44119878417969,73.8261,99.35100878417968L73.7541,98.73117878417969Q73.5001,96.92310878417969,71.9574,95.8941987841797Q70.57730000000001,95.03218878417968,66.1396,95.03218878417968Q62.7121,95.03223878417968,61.1721,95.94724878417969Q59.6761,96.83600878417968,59.6761,98.28856878417969Q59.6761,99.62246878417969,61.3704,100.37474878417969Q62.5979,101.16350878417968,67.9822,101.87747878417969Q73.3377,102.7184787841797,76.1991,104.23347878417968Q79.1276,105.78397878417968,79.1276,109.27657878417969Q79.1276,113.20447878417968,75.9088,115.26917878417969Q73.2761,117.31037878417969,67.0067,117.31037878417969Q61.2727,117.31027878417969,57.968,115.46997878417969Q54.6224,113.60637878417968,54.2909,109.82587878417968L54.2072,108.73257878417968ZM134.57299999999998,103.82827878417969Q134.57299999999998,97.59375878417968,138.33499999999998,94.4563887841797Q142.08499999999998,91.32965758417969,147.74599999999998,91.32965758417969Q153.412,91.32965358417968,157.218,94.45550878417968Q161.039,97.59300878417969,161.039,103.82827878417969L161.039,104.55977878417968Q161.039,110.92857878417969,157.219,114.08847878417969Q153.412,117.23697878417968,147.74599999999998,117.23697878417968Q142.08499999999998,117.23697878417968,138.33499999999998,114.08757878417968Q134.57299999999998,110.92757878417969,134.57299999999998,104.55977878417968L134.57299999999998,103.82827878417969ZM189.961,103.82827878417969Q189.961,97.59392878417968,193.723,94.4563887841797Q197.472,91.32965758417969,203.134,91.32965758417969Q208.799,91.3296607841797,212.606,94.45550878417968Q216.427,97.59300878417969,216.427,103.82827878417969L216.427,104.55977878417968Q216.427,110.92857878417969,212.607,114.08847878417969Q208.8,117.23697878417968,203.134,117.23697878417968Q197.472,117.23697878417968,193.723,114.08757878417968Q189.961,110.92777878417968,189.961,104.55977878417968L189.961,103.82827878417969ZM41.2611,91.74772678417969C41.3297,91.74772678417969,41.3926,91.78525578417968,41.4238,91.84489478417969L53.3716,116.5420787841797C53.3848,116.56727878417969,53.3917,116.59507878417969,53.3917,116.62337878417969C53.3917,116.72197878417968,53.309799999999996,116.80177878417969,53.2088,116.80177878417969L48.1892,116.80177878417969C48.1189,116.80177878417969,48.0548,116.76247878417969,48.0244,116.70057878417968L39.5908,97.50846878417968Q39.3172,96.97649878417968,39.1669,96.67252878417969Q39.0695,96.47550878417968,38.9503,96.2130587841797Q38.8272,96.48271878417968,38.7357,96.67545878417968Q38.5958,96.9707587841797,38.4,97.51774878417969L33.5,110.5001787841797L41.35,108.14617878417968C41.4366,108.12337878417969,41.5273,108.16507878417968,41.5642,108.24477878417969L43.2067,111.79267878417969C43.210899999999995,111.80157878417968,43.214200000000005,111.8109787841797,43.2168,111.82047878417968C43.229299999999995,111.86617878417968,43.2226,111.91477878417969,43.1982,111.95577878417969C43.1739,111.9966787841797,43.1339,112.02657878417969,43.087,112.03877878417968L27.66199,116.79607878417968C27.64668,116.80007878417969,27.63091,116.80187878417969,27.61507,116.80187878417969L26.432832,116.80187878417969C26.405841,116.80187878417969,26.379176,116.79607878417968,26.354768,116.78487878417968C26.310922,116.7646787841797,26.2770949,116.72827878417968,26.2607282,116.68377878417968C26.24436074,116.63917878417969,26.2468012,116.58987878417969,26.2675031,116.54707878417969L36.713499999999996,91.84977678417968C36.743700000000004,91.78734178417969,36.808099999999996,91.74772678417969,36.8788,91.74772678417969L41.2611,91.74772678417969ZM109.1843,91.94326478417969C109.1843,91.84470878417969,109.2662,91.76481278417968,109.3672,91.76481278417968L123.7561,91.76481278417968Q127.784,91.76481278417968,130.015,93.87242878417969Q132.247,95.98243878417969,132.247,99.62586878417969Q132.247,103.27267878417969,129.938,105.46997878417969Q127.772,107.53127878417969,124.6247,107.7364787841797L133.287,116.49947878417969C133.32,116.53277878417968,133.338,116.5771787841797,133.338,116.62337878417969C133.338,116.72197878417968,133.256,116.80177878417969,133.155,116.80177878417969L127.863,116.80177878417969C127.813,116.80177878417969,127.764,116.78157878417969,127.73,116.74577878417969L116.4148,105.03707878417968C116.3828,105.0039787841797,116.365,104.96007878417969,116.365,104.91457878417968L116.365,104.18737878417969C116.365,104.08887878417968,116.4468,104.00897878417969,116.5478,104.00897878417969L123.2784,104.00897878417969Q125.3709,104.00897878417969,126.458,102.82867878417969Q127.552,101.63997878417969,127.552,99.75350878417969Q127.552,97.83292878417969,126.454,96.69529878417968Q125.3596,95.56216878417969,123.2784,95.56216878417969L113.8401,95.56216878417969L113.8415,116.62337878417969C113.8415,116.72197878417968,113.7596,116.80177878417969,113.6586,116.80177878417969L109.3672,116.80177878417969C109.2662,116.80177878417969,109.1843,116.72197878417968,109.1843,116.62337878417969L109.1843,91.94326478417969ZM80.3127,91.94326478417969C80.3127,91.84470878417969,80.3946,91.76481278417968,80.4956,91.76481278417968L105.5354,91.76481278417968C105.6364,91.76481278417968,105.7182,91.84470878417969,105.7182,91.94326478417969L105.7182,95.54023878417969C105.7182,95.63879878417968,105.6364,95.71868878417969,105.5354,95.71868878417969L95.3581,95.71868878417969L95.3581,116.62337878417969C95.3581,116.72197878417968,95.2762,116.80177878417969,95.1753,116.80177878417969L90.8565,116.80177878417969C90.7556,116.80177878417969,90.6737,116.72197878417968,90.6737,116.62337878417969L90.6737,95.71868878417969L80.4956,95.71868878417969C80.3946,95.71868878417969,80.3127,95.63879878417968,80.3127,95.54023878417969L80.3127,91.94326478417969ZM186.434,98.15831878417968Q186.434,100.36251878417968,185.388,101.86357878417968Q184.515,103.11717878417969,183.405,103.61937878417969Q184.979,104.05397878417969,186.174,105.36587878417969Q187.553,106.87877878417969,187.553,109.66407878417968Q187.553,113.1773787841797,185.062,114.99857878417968Q182.597,116.80177878417969,178.933,116.80177878417969L165.383,116.80177878417969C165.282,116.80177878417969,165.2,116.72197878417968,165.2,116.62337878417969L165.2,91.94326478417969C165.2,91.84470878417969,165.282,91.76481278417968,165.383,91.76481278417968L178.436,91.76481278417968Q182.119,91.76481278417968,184.264,93.3454487841797Q186.434,94.94365878417969,186.434,98.15831878417968ZM147.765,113.4393787841797Q151.436,113.44667878417968,153.84199999999998,111.33527878417969Q156.24,109.2312787841797,156.24,104.8943787841797L156.24,103.58517878417969Q156.24,99.30910878417968,153.85500000000002,97.25767878417969Q151.459,95.19731878417969,147.764,95.19004878417968Q144.077,95.18276878417969,141.725,97.24899878417969Q139.38299999999998,99.30799878417969,139.382,103.5763787841797L139.382,104.87497878417969Q139.382,109.23197878417969,141.738,111.32867878417969Q144.102,113.43207878417968,147.765,113.4393787841797ZM203.152,113.4393787841797Q206.823,113.44667878417968,209.23,111.33527878417969Q211.627,109.2312787841797,211.628,104.8943787841797L211.628,103.58517878417969Q211.628,99.30910878417968,209.242,97.25767878417969Q206.847,95.19732878417969,203.152,95.19004878417968Q199.464,95.18276878417969,197.113,97.24899878417969Q194.77,99.30799878417969,194.77,103.5763787841797L194.77,104.87497878417969Q194.77,109.23187878417968,197.126,111.32867878417969Q199.49,113.43207878417968,203.152,113.4393787841797ZM181.854,98.77701878417969Q181.854,97.08973878417969,180.864,96.2459687841797Q179.862,95.39292878417969,177.937,95.39291878417968L169.81,95.39291878417968L169.81,102.2638787841797L177.935,102.2638787841797Q179.857,102.2638787841797,180.858,101.35847878417968Q181.854,100.45825878417969,181.854,98.77701878417969ZM182.841,109.2270787841797Q182.841,107.3691787841797,181.616,106.44167878417969Q180.37,105.49817878417969,178.416,105.49817878417969L169.81,105.49817878417969L169.81,113.23917878417969L178.416,113.23917878417969Q180.369,113.23917878417969,181.615,112.2775787841797Q182.841,111.33077878417969,182.841,109.2270787841797Z"
        fill-rule="evenodd" fill="#000000" fill-opacity="1" />
</svg>