<svg xmlns="http://www.w3.org/2000/svg" xmlns:xlink="http://www.w3.org/1999/xlink" fill="none" version="1.1" width="268"
    height="128" viewBox="0 0 268 128">
    <path
        d="M145.8582559326172,72.9736514892578Q152.0603559326172,70.51195148925781,156.77645593261718,65.7836514892578Q161.4910559326172,61.05685148925781,163.94495593261718,54.842151489257816Q166.20455593261718,49.119751489257816,166.20455593261718,42.96555148925781Q166.20455593261718,36.81135148925782,163.94495593261718,31.088851489257813Q161.4910559326172,24.874251489257812,156.77645593261718,20.147371489257814Q152.06045593261717,15.419101489257812,145.8582559326172,12.957351489257812Q140.1450559326172,10.689651489257812,133.99995593261718,10.689651489257812Q127.85505593261719,10.689651489257812,122.14175593261719,12.957351489257812Q115.93965593261719,15.419071489257814,111.22360593261719,20.147371489257814Q106.50896593261719,24.874251489257812,104.0550559326172,31.088851489257813Q101.79545593261719,36.81125148925781,101.79545593261719,42.96555148925781Q101.79545593261719,49.119751489257816,104.0550559326172,54.84225148925781Q106.50897593261719,61.05675148925781,111.22360593261719,65.7836514892578Q115.93965593261719,70.51195148925781,122.14175593261719,72.9736514892578Q127.85505593261719,75.24135148925781,133.99995593261718,75.24135148925781Q140.1449559326172,75.24135148925781,145.8582559326172,72.9736514892578ZM144.4429559326172,16.495761489257813Q149.90755593261719,18.664771489257813,154.06405593261718,22.832051489257815Q158.2218559326172,27.000751489257812,160.38675593261718,32.483151489257814Q162.38095593261718,37.533451489257814,162.38095593261718,42.96555148925781Q162.38095593261718,48.39765148925781,160.38675593261718,53.44795148925781Q158.2218559326172,58.93025148925781,154.06405593261718,63.09905148925781Q149.90755593261719,67.26625148925781,144.4429559326172,69.43525148925781Q139.4112559326172,71.43245148925782,133.99995593261718,71.43245148925782Q128.58875593261718,71.43245148925782,123.55705593261719,69.43525148925781Q118.09255593261719,67.26635148925781,113.93595593261719,63.09905148925781Q109.77808593261719,58.93025148925781,107.61328593261719,53.44795148925781Q105.61907593261719,48.397551489257815,105.61907593261719,42.96555148925781Q105.61907593261719,37.533451489257814,107.61328593261719,32.483151489257814Q109.77809593261719,27.000751489257812,113.93595593261719,22.832051489257815Q118.09245593261718,18.664761489257813,123.55705593261719,16.495761489257813Q128.58875593261718,14.498601489257812,133.99995593261718,14.498601489257812Q139.4112559326172,14.498601489257812,144.4429559326172,16.495761489257813Z"
        fill-rule="evenodd" fill="#000000" fill-opacity="1" />
    <path
        d="M165.56634162719726,21.348250176696776Q165.87246162719725,21.786320176696776,165.90592162719727,22.318700176696776Q165.95554162719728,23.108190176696777,165.42945162719727,23.699980176696776Q164.90597162719726,24.288840176696777,164.11774162719726,24.337350176696777Q163.04483162719725,24.403370176696775,162.43014162719726,23.523910176696777Q160.36371162719726,20.567390176696776,157.69952562719726,18.11528017669678Q157.13538682719727,17.596090176696777,157.08744437719727,16.833290176696778Q157.03782402719727,16.043800176696777,157.56391262719725,15.452003176696778Q158.08739162719726,14.863143776696777,158.87562162719726,14.814641026696778Q159.69092162719727,14.764472576696777,160.29141162719728,15.317172176696777Q163.26117162719726,18.050440176696778,165.56560162719725,21.347180176696778L165.56634162719726,21.348250176696776Z"
        fill-rule="evenodd" fill="#000000" fill-opacity="0.6" />
    <path
        d="M159.90362873535156,42.96510461425781Q159.90362873535156,43.60240461425781,159.87242873535155,44.23900461425781Q159.84122873535156,44.875504614257814,159.77892873535157,45.509704614257814Q159.71652873535157,46.14400461425781,159.62322873535157,46.77440461425781Q159.52992873535158,47.40480461425781,159.40592873535155,48.029904614257816Q159.28182873535155,48.654904614257816,159.12732873535157,49.27310461425781Q158.97282873535156,49.89130461425781,158.78822873535157,50.501204614257816Q158.60362873535155,51.11110461425781,158.38942873535157,51.71110461425781Q158.17522873535157,52.31120461425781,157.93182873535156,52.90000461425781Q157.68852873535155,53.48880461425781,157.41662873535157,54.06490461425781Q157.14472873535158,54.64100461425781,156.84492873535157,55.20310461425781Q156.54522873535157,55.765104614257815,156.21832873535158,56.31170461425781Q155.89132873535158,56.858404614257815,155.53812873535156,57.38830461425781Q155.18482873535157,57.91820461425781,154.80602873535156,58.430104614257814Q154.42722873535155,58.94200461425781,154.02382873535157,59.434604614257815Q153.62032873535156,59.927304614257814,153.19332873535157,60.399504614257815Q152.76632873535158,60.871704614257816,152.31662873535157,61.32230461425781Q151.86702873535157,61.773004614257815,151.39582873535156,62.200904614257816Q150.92462873535158,62.62890461425781,150.43312873535154,63.033304614257816Q149.94152873535157,63.437604614257815,149.43072873535158,63.81720461425781Q148.92002873535156,64.19680461425781,148.39122873535155,64.5509046142578Q147.86252873535156,64.90500461425782,147.31712873535156,65.23260461425781Q146.77172873535156,65.5603046142578,146.21092873535156,65.86070461425781Q145.65002873535155,66.16110461425781,145.07522873535157,66.4336046142578Q144.50032873535156,66.70610461425781,143.91292873535156,66.95000461425781Q143.32542873535158,67.1939046142578,142.72662873535157,67.40860461425781Q142.12792873535156,67.62330461425782,141.51942873535157,67.80830461425782Q140.91092873535155,67.99330461425781,140.29402873535156,68.14810461425782Q139.67722873535155,68.30300461425782,139.05352873535156,68.42730461425782Q138.42982873535158,68.55160461425781,137.80082873535156,68.6451046142578Q137.17182873535157,68.73870461425781,136.53902873535156,68.80110461425781Q135.90612873535156,68.86360461425781,135.27102873535156,68.89490461425781Q134.63592873535157,68.92610461425781,134.00002873535158,68.92610461425781Q133.36412873535156,68.92610461425781,132.72892873535156,68.89490461425781Q132.09382873535156,68.86360461425781,131.46102873535156,68.80110461425781Q130.82812873535156,68.73870461425781,130.19912873535156,68.6451046142578Q129.57012873535157,68.55160461425781,128.94642873535156,68.42730461425782Q128.32272873535157,68.30300461425782,127.70592873535156,68.14810461425782Q127.08902873535156,67.99330461425781,126.48052873535156,67.80830461425782Q125.87202873535156,67.62330461425782,125.27332873535155,67.40860461425781Q124.67452873535156,67.1939046142578,124.08712873535157,66.95000461425781Q123.49962873535156,66.70610461425781,122.92472873535156,66.4336046142578Q122.34992873535157,66.16110461425781,121.78912873535157,65.86070461425781Q121.22822873535156,65.5603046142578,120.68282873535156,65.23260461425781Q120.13742873535156,64.90500461425782,119.60872873535156,64.5509046142578Q119.07992873535156,64.19680461425781,118.56922873535156,63.81720461425781Q118.05843873535156,63.437604614257815,117.56687873535157,63.033304614257816Q117.07531873535156,62.62900461425781,116.60414873535156,62.20100461425781Q116.13297873535156,61.773004614257815,115.68332873535157,61.32230461425781Q115.23368873535156,60.871704614257816,114.80663873535156,60.399504614257815Q114.37959873535156,59.927304614257814,113.97618873535156,59.434604614257815Q113.57277873535156,58.94200461425781,113.19396873535156,58.430104614257814Q112.81516873535156,57.91820461425781,112.46187873535156,57.38830461425781Q112.10859873535156,56.858404614257815,111.78167873535156,56.31170461425781Q111.45475873535156,55.765104614257815,111.15499873535157,55.20310461425781Q110.85523873535156,54.64100461425781,110.58335873535157,54.06490461425781Q110.31147873535156,53.48880461425781,110.06812873535156,52.90000461425781Q109.82477873535156,52.31120461425781,109.61054873535156,51.71110461425781Q109.39631873535156,51.11110461425781,109.21172873535156,50.501204614257816Q109.02713973535157,49.89130461425781,108.87262873535157,49.27310461425781Q108.71811773535157,48.654904614257816,108.59405973535156,48.029904614257816Q108.47000273535156,47.40480461425781,108.37669673535156,46.77440461425781Q108.28339073535156,46.14400461425781,108.22106173535157,45.509704614257814Q108.15873293535157,44.875504614257814,108.12753083535156,44.23900461425781Q108.09632873535156,43.60240461425781,108.09632873535156,42.96510461425781Q108.09632873535156,42.327804614257815,108.12753083535156,41.69130461425782Q108.15873293535157,41.054704614257815,108.22106173535157,40.42050461425781Q108.28339073535156,39.786304614257816,108.37669673535156,39.15580461425782Q108.47000273535156,38.52540461425781,108.59405973535156,37.90040461425781Q108.71811773535157,37.27530461425781,108.87262873535157,36.65710461425781Q109.02713973535157,36.03890461425782,109.21172873535156,35.42900461425781Q109.39631873535156,34.81920461425781,109.61054873535156,34.219104614257816Q109.82477873535156,33.61910461425781,110.06812873535156,33.030304614257815Q110.31147873535156,32.44150461425781,110.58335873535157,31.865404614257812Q110.85523873535156,31.289204614257812,111.15499873535157,30.727204614257815Q111.45475873535156,30.165104614257814,111.78167873535156,29.618504614257812Q112.10859873535156,29.071804614257815,112.46187873535156,28.541904614257813Q112.81516873535156,28.012004614257812,113.19396873535156,27.50020461425781Q113.57277873535156,26.98827461425781,113.97618873535156,26.495624614257814Q114.37959873535156,26.002984614257812,114.80663873535156,25.530764614257812Q115.23368873535156,25.05855461425781,115.68332873535157,24.607914614257812Q116.13297873535156,24.157264614257812,116.60414873535156,23.72927461425781Q117.07531873535156,23.301284614257813,117.56687873535157,22.89698461425781Q118.05843873535156,22.49268461425781,118.56922873535156,22.113034614257813Q119.07992873535156,21.73339461425781,119.60872873535156,21.37932461425781Q120.13742873535156,21.02525461425781,120.68282873535156,20.697614614257812Q121.22822873535156,20.369974614257814,121.78912873535157,20.06954461425781Q122.34992873535157,19.769124614257812,122.92472873535156,19.49664461425781Q123.49962873535156,19.224154614257813,124.08712873535157,18.980264614257813Q124.67452873535156,18.736384614257812,125.27332873535155,18.52168461425781Q125.87202873535156,18.30697461425781,126.48052873535156,18.121974614257812Q127.08902873535156,17.936976614257812,127.70592873535156,17.782123614257813Q128.32272873535157,17.627270614257814,128.94642873535156,17.50293861425781Q129.57012873535157,17.37860561425781,130.19912873535156,17.285093614257814Q130.82812873535156,17.191580614257813,131.46102873535156,17.12911361425781Q132.09382873535156,17.066646914257813,132.72892873535156,17.03537581425781Q133.36412873535156,17.004104614257812,134.00002873535158,17.004104614257812Q134.63592873535157,17.004104614257812,135.27102873535156,17.03537581425781Q135.90612873535156,17.066646914257813,136.53902873535156,17.12911361425781Q137.17182873535157,17.191580614257813,137.80082873535156,17.285093614257814Q138.42982873535158,17.37860561425781,139.05352873535156,17.50293861425781Q139.67722873535155,17.627270614257814,140.29402873535156,17.782123614257813Q140.91092873535155,17.936976614257812,141.51942873535157,18.121974614257812Q142.12792873535156,18.30697461425781,142.72662873535157,18.52168461425781Q143.32542873535158,18.736384614257812,143.91292873535156,18.980264614257813Q144.50032873535156,19.224154614257813,145.07522873535157,19.49664461425781Q145.65002873535155,19.769124614257812,146.21092873535156,20.06954461425781Q146.77172873535156,20.369974614257814,147.31712873535156,20.697614614257812Q147.86252873535156,21.02525461425781,148.39132873535158,21.37932461425781Q148.92002873535156,21.73339461425781,149.43072873535158,22.113034614257813Q149.94152873535157,22.49268461425781,150.43312873535154,22.89698461425781Q150.92462873535158,23.301284614257813,151.39582873535156,23.72927461425781Q151.86702873535157,24.157264614257812,152.31662873535157,24.607914614257812Q152.76632873535158,25.05855461425781,153.19332873535157,25.530764614257812Q153.62032873535156,26.002984614257812,154.02382873535157,26.495624614257814Q154.42722873535155,26.98827461425781,154.80602873535156,27.50020461425781Q155.18482873535157,28.012004614257812,155.53812873535156,28.541904614257813Q155.89132873535158,29.071804614257815,156.21832873535158,29.618504614257812Q156.54522873535157,30.165104614257814,156.84492873535157,30.727204614257815Q157.14472873535158,31.289204614257812,157.41662873535157,31.865404614257812Q157.68852873535155,32.44150461425781,157.93182873535156,33.030304614257815Q158.17522873535157,33.61910461425781,158.38942873535157,34.219104614257816Q158.60362873535155,34.81920461425781,158.78822873535157,35.42900461425781Q158.97282873535156,36.03890461425782,159.12732873535157,36.65710461425781Q159.28182873535155,37.27530461425781,159.40592873535155,37.90040461425781Q159.52992873535158,38.52540461425781,159.62322873535157,39.15580461425782Q159.71652873535157,39.786304614257816,159.77892873535157,40.42050461425781Q159.84122873535156,41.054704614257815,159.87242873535155,41.69130461425782Q159.90362873535156,42.327804614257815,159.90362873535156,42.96510461425781Z"
        fill="#000000" fill-opacity="0.15" />
    <path
        d="M117.40998840332031,42.965170239257816C117.40998828939232,43.59377023925781,117.81038940332031,44.206170239257816,119.56691840332032,44.47857023925781Q125.4738084033203,45.31177023925781,128.4868884033203,48.31457023925781Q131.4998884033203,51.317470239257815,132.33588840332033,57.08527023925781C132.6091884033203,58.835870239257815,133.22368840332032,59.35397023925781,133.85448840332032,59.35397023925781C134.4851884033203,59.35397023925781,135.0996884033203,58.835870239257815,135.3729884033203,57.08527023925781Q136.20898840332032,51.317470239257815,139.22198840332032,48.31457023925781Q142.2350884033203,45.31177023925781,148.2614884033203,44.47857023925781C150.02328840332032,44.19697023925781,150.29888840332032,43.59377023925781,150.29888840332032,42.965170239257816C150.29888840332032,42.33657023925781,149.9037884033203,41.81587023925781,148.2614884033203,41.45177023925781Q142.2350884033203,40.618570239257814,139.22198840332032,37.61577023925781Q136.20898840332032,34.61290023925781,135.3729884033203,28.726000239257814C134.9801884033203,26.97543023925781,134.4851884033203,26.576370239257812,133.85448840332032,26.576370239257812C133.22368840332032,26.576370239257812,132.6091884033203,26.97543023925781,132.33588840332033,28.726000239257814Q131.4998884033203,34.61290023925781,128.4868884033203,37.61577023925781Q125.4738084033203,40.618570239257814,119.56691840332032,41.45177023925781C117.81039640332031,41.724170239257816,117.40998851724831,42.33657023925781,117.40998840332031,42.965170239257816Z"
        fill="#000000" fill-opacity="0.75" />
    <path
        d="M147.5515945751953,65.09001398925781Q147.32848457519532,64.82601398925782,147.08700457519532,64.58531398925781Q144.7938845751953,62.30001398925781,140.2983745751953,61.66591398925782C138.96154457519532,61.45861398925781,138.6568145751953,60.992513989257816,138.6568145751953,60.51411398925781C138.6568145751953,60.035713989257815,138.9615495751953,59.56961398925781,140.2983745751953,59.362313989257814Q144.7938845751953,58.72821398925781,147.08700457519532,56.44287398925781Q149.3801145751953,54.157513989257815,150.0164145751953,49.677213989257815C150.2244145751953,48.34492298925781,150.69201457519532,48.04121398925781,151.1721145751953,48.04121398925781C151.6521145751953,48.04121398925781,152.02881457519533,48.34492298925781,152.3277145751953,49.677213989257815Q152.9640145751953,54.157513989257815,155.25711457519532,56.44287398925781Q155.5241145751953,56.708953989257814,155.82221457519532,56.952663989257815C153.7139145751953,60.25631398925781,150.8863145751953,63.03841398925781,147.5515945751953,65.09001398925781Z"
        fill-rule="evenodd" fill="#000000" fill-opacity="0.25" />
    <path
        d="M112.90846306695707,27.89349070800781C114.55207252441406,25.583170708007813,116.56247252441406,23.55853070800781,118.85969252441406,21.900094624317813Q119.34835252441407,23.15557070800781,120.16805252441407,23.972500708007814Q121.63458252441406,25.434070708007813,124.56776252441406,25.83959070800781C125.36716252441406,26.01678070800781,125.55946252441406,26.27024070800781,125.55946252441406,26.57620070800781C125.55946252441406,26.882150708007813,125.42526252441407,27.17575070800781,124.56776252441406,27.312800708007813Q121.63458252441406,27.718320708007813,120.16805252441407,29.17989070800781Q118.70152252441406,30.641460708007813,118.29462252441407,33.44880070800781C118.16160252441406,34.300900708007816,117.86251252441406,34.553000708007815,117.55551252441407,34.553000708007815C117.24852252441406,34.553000708007815,116.94943252441406,34.300900708007816,116.81641252441406,33.44880070800781Q116.40951252441407,30.641460708007813,114.94298252441406,29.17989070800781Q114.13794252441406,28.377580708007812,112.90846306695707,27.89349070800781Z"
        fill-rule="evenodd" fill="#000000" fill-opacity="0.5" />
</svg>