<svg xmlns="http://www.w3.org/2000/svg" xmlns:xlink="http://www.w3.org/1999/xlink" fill="none" version="1.1" width="285" height="64" viewBox="0 0 285 64"><g><g><g><path d="M36.7325,51.5245Q33.007000000000005,53,29,53Q24.993,53,21.267400000000002,51.5245Q17.22318,49.9228,14.14792,46.8464Q11.073599999999999,43.7709,9.47344,39.7275Q8,36.0042,8,32Q8,27.9958,9.47344,24.2725Q11.07359,20.22909,14.14792,17.153579999999998Q17.22318,14.07715,21.267400000000002,12.47546Q24.993,11,29,11Q33.0071,11,36.7325,12.47546Q40.7769,14.07718,43.8521,17.153579999999998Q46.9264,20.22911,48.5266,24.2725Q50,27.9958,50,32Q50,36.0042,48.5266,39.7275Q46.9264,43.7709,43.8521,46.8464Q40.7769,49.9228,36.7325,51.5245ZM35.540400000000005,15.45819Q32.3891,14.210139999999999,29,14.210139999999999Q25.6109,14.210139999999999,22.459699999999998,15.45819Q19.0372,16.81364,16.43395,19.41785Q13.829799999999999,22.023,12.473939999999999,25.4491Q11.22491,28.6053,11.224920000000001,32Q11.224920000000001,35.3947,12.473939999999999,38.5509Q13.82979,41.977000000000004,16.43395,44.5822Q19.0372,47.1864,22.459600000000002,48.5418Q25.611,49.7899,29,49.7899Q32.388999999999996,49.7899,35.540400000000005,48.5418Q38.9628,47.1863,41.566,44.5822Q44.1702,41.977000000000004,45.5261,38.5509Q46.7751,35.394800000000004,46.7751,32Q46.7751,28.6053,45.5261,25.4491Q44.1702,22.023,41.566,19.41785Q38.9628,16.81363,35.540400000000005,15.45819Z" fill-rule="evenodd" fill="#000000" fill-opacity="0.75"/></g><g><path d="M49.159848022460935,16.236372907218932Q47.606148022460935,14.135062907218934,45.629518022460935,12.411073907218933Q45.111698022460935,11.959416507218933,44.426058022460936,12.019009177218933Q43.76283202246094,12.076653307218933,43.333834022460934,12.583231907218932Q42.90181532246094,13.093382907218933,42.960650062460935,13.758162907218933Q43.01746632246094,14.400142907218934,43.504839022460935,14.825202907218934Q45.21754802246094,16.319052907218932,46.562608022460935,18.138342907218934Q47.099658022460936,18.864732907218933,48.00212802246094,18.786292907218932Q48.665358022460936,18.728652907218933,49.094348022460935,18.222072907218934Q49.52637802246094,17.711922907218934,49.467538022460936,17.047132907218934Q49.42787802246094,16.598972907218933,49.159848022460935,16.236372907218932Z" fill-rule="evenodd" fill="#000000" fill-opacity="0.5"/></g><g><g><path d="M29.000230675506593,48.332751387786864Q29.401230675506593,48.332751387786864,29.80173067550659,48.313051387786864Q30.20213067550659,48.29335138778686,30.601230675506592,48.254051387786866Q31.000230675506593,48.21475138778686,31.396830675506592,48.155951387786864Q31.79353067550659,48.09705138778686,32.186730675506595,48.01885138778687Q32.58003067550659,47.940651387786865,32.96893067550659,47.843251387786864Q33.357930675506594,47.74575138778687,33.741530675506596,47.629451387786865Q34.12523067550659,47.51305138778687,34.50283067550659,47.377951387786865Q34.88033067550659,47.242851387786864,35.25073067550659,47.089451387786866Q35.621230675506595,46.935951387786865,35.98363067550659,46.76455138778687Q36.34613067550659,46.593051387786865,36.69973067550659,46.404051387786865Q37.05333067550659,46.215051387786865,37.39723067550659,46.008951387786865Q37.74123067550659,45.802851387786866,38.074530675506594,45.58005138778687Q38.40793067550659,45.35725138778686,38.73003067550659,45.11845138778686Q39.05203067550659,44.87955138778686,39.36203067550659,44.62525138778686Q39.67193067550659,44.370851387786864,39.96903067550659,44.10155138778687Q40.26613067550659,43.832351387786865,40.54963067550659,43.548751387786865Q40.83323067550659,43.26525138778686,41.1024306755066,42.96815138778686Q41.37173067550659,42.67105138778686,41.62613067550659,42.36115138778686Q41.88043067550659,42.05115138778687,42.11933067550659,41.729151387786864Q42.35813067550659,41.407051387786865,42.58093067550659,41.07365138778687Q42.80373067550659,40.740351387786866,43.00983067550659,40.396351387786865Q43.21593067550659,40.05245138778686,43.40493067550659,39.69885138778687Q43.59393067550659,39.34525138778687,43.76543067550659,38.98275138778686Q43.93683067550659,38.62035138778687,44.09033067550659,38.24985138778686Q44.24373067550659,37.879451387786865,44.37883067550659,37.50195138778686Q44.51393067550659,37.12435138778687,44.63033067550659,36.74065138778687Q44.74673067550659,36.35705138778687,44.84413067550659,35.968051387786865Q44.94153067550659,35.579151387786865,45.019730675506594,35.18585138778687Q45.09793067550659,34.79265138778686,45.15683067550659,34.395951387786866Q45.21563067550659,33.99935138778687,45.25493067550659,33.600351387786866Q45.29423067550659,33.20125138778687,45.31393067550659,32.800851387786864Q45.33363067550659,32.40035138778687,45.33363067550659,31.999351387786866Q45.33363067550659,31.598451387786866,45.31393067550659,31.197951387786865Q45.29423067550659,30.797451387786865,45.25493067550659,30.398451387786864Q45.21563067550659,29.999451387786863,45.15683067550659,29.602751387786867Q45.09793067550659,29.206151387786868,45.019730675506594,28.812951387786867Q44.94153067550659,28.419651387786864,44.84413067550659,28.030751387786864Q44.746630675506594,27.641751387786865,44.63033067550659,27.258051387786864Q44.51393067550659,26.874351387786866,44.37883067550659,26.496851387786865Q44.24373067550659,26.119351387786864,44.09033067550659,25.748851387786864Q43.93683067550659,25.378441387786864,43.76543067550659,25.015981387786866Q43.59393067550659,24.653521387786867,43.40493067550659,24.299901387786868Q43.21593067550659,23.946291387786864,43.00983067550659,23.602371387786867Q42.80373067550659,23.258451387786863,42.58093067550659,22.925071387786865Q42.35813067550659,22.591681387786863,42.11933067550659,22.269631387786866Q41.88043067550659,21.947571387786866,41.62613067550659,21.637631387786865Q41.37173067550659,21.327681387786864,41.1024306755066,21.030591387786863Q40.83323067550659,20.733491387786867,40.54963067550659,20.449971387786867Q40.26613067550659,20.166451387786864,39.96903067550659,19.897181387786866Q39.67193067550659,19.627911387786867,39.36203067550659,19.373551387786865Q39.05203067550659,19.119181387786867,38.73003067550659,18.880331387786864Q38.40793067550659,18.641471387786865,38.074530675506594,18.418711387786864Q37.74123067550659,18.195951387786867,37.39723067550659,17.989821387786865Q37.05333067550659,17.783681387786864,36.69973067550659,17.594671387786864Q36.34613067550659,17.405661387786864,35.98363067550659,17.234221387786864Q35.621230675506595,17.062791387786866,35.25073067550659,16.909351387786867Q34.88033067550659,16.755911387786867,34.50283067550659,16.620831387786865Q34.12523067550659,16.485751387786866,33.741530675506596,16.369359387786865Q33.357930675506594,16.252966387786866,32.96893067550659,16.155540387786864Q32.58003067550659,16.058115387786867,32.186730675506595,15.979891387786866Q31.79353067550659,15.901668387786865,31.396830675506592,15.842835387786865Q31.000230675506593,15.784001387786866,30.601230675506592,15.744700787786865Q30.20213067550659,15.705399787786865,29.80173067550659,15.685725587786866Q29.401230675506593,15.666051387786865,29.000230675506593,15.666051387786865Q28.599330675506593,15.666051387786865,28.198830675506592,15.685725587786866Q27.79833067550659,15.705399787786865,27.39933067550659,15.744700787786865Q27.00033067550659,15.784001387786866,26.603630675506594,15.842835387786865Q26.207030675506594,15.901668387786865,25.813830675506594,15.979891387786866Q25.42053067550659,16.058115387786867,25.03163067550659,16.155540387786864Q24.64263067550659,16.252966387786866,24.25893067550659,16.369359387786865Q23.875230675506593,16.485751387786866,23.497730675506592,16.620831387786865Q23.12023067550659,16.755911387786867,22.74973067550659,16.909351387786867Q22.37932067550659,17.062791387786866,22.016860675506592,17.234221387786864Q21.654400675506594,17.405661387786864,21.300780675506594,17.594671387786864Q20.94717067550659,17.783681387786864,20.603250675506594,17.989821387786865Q20.25933067550659,18.195951387786867,19.92595067550659,18.418711387786864Q19.59256067550659,18.641471387786865,19.270510675506593,18.880331387786864Q18.948450675506592,19.119181387786867,18.63851067550659,19.373551387786865Q18.32856067550659,19.627911387786867,18.03147067550659,19.897181387786866Q17.734370675506593,20.166451387786864,17.450850675506594,20.449971387786867Q17.16733067550659,20.733491387786867,16.898060675506592,21.030591387786863Q16.628790675506593,21.327681387786864,16.37443067550659,21.637631387786865Q16.120060675506593,21.947571387786866,15.881210675506592,22.269631387786866Q15.642350675506592,22.591681387786863,15.419590675506592,22.925071387786865Q15.196830675506591,23.258451387786863,14.990700675506591,23.602371387786867Q14.784560675506592,23.946291387786864,14.595550675506592,24.299901387786868Q14.406540675506593,24.653521387786867,14.235100675506592,25.015981387786866Q14.063670675506591,25.378451387786868,13.910230675506591,25.748851387786864Q13.756790675506592,26.119351387786864,13.621710675506591,26.496851387786865Q13.486630675506591,26.874351387786866,13.370238675506592,27.258051387786864Q13.253845675506591,27.641751387786865,13.156419675506593,28.030751387786864Q13.058994675506591,28.419651387786864,12.980770675506593,28.812951387786867Q12.902547675506591,29.206151387786868,12.843714675506591,29.602751387786867Q12.784880675506592,29.999451387786863,12.745580075506592,30.398451387786864Q12.706279075506592,30.797451387786865,12.686604875506593,31.197951387786865Q12.666930675506592,31.598451387786866,12.666930675506592,31.999351387786866Q12.666930675506592,32.40035138778687,12.686604875506593,32.800851387786864Q12.706279075506592,33.20125138778687,12.745580075506592,33.600351387786866Q12.784880675506592,33.99935138778687,12.843714675506591,34.395951387786866Q12.902547675506591,34.79265138778686,12.980770675506593,35.18585138778687Q13.058994675506591,35.579151387786865,13.156419675506593,35.968051387786865Q13.253845675506591,36.35705138778687,13.370238675506592,36.74065138778687Q13.486630675506591,37.12435138778687,13.621710675506591,37.50195138778686Q13.756790675506592,37.879451387786865,13.910230675506591,38.24985138778686Q14.063670675506591,38.62035138778687,14.235100675506592,38.98275138778686Q14.406540675506593,39.34525138778687,14.595550675506592,39.69885138778687Q14.784560675506592,40.05245138778686,14.990700675506591,40.396351387786865Q15.196830675506591,40.740351387786866,15.419590675506592,41.07365138778687Q15.642350675506592,41.407051387786865,15.881210675506592,41.729151387786864Q16.120060675506593,42.05115138778687,16.37443067550659,42.36115138778686Q16.628790675506593,42.67105138778686,16.898060675506592,42.96815138778686Q17.16733067550659,43.26525138778686,17.450850675506594,43.548751387786865Q17.734370675506593,43.832351387786865,18.03147067550659,44.10155138778687Q18.32856067550659,44.370851387786864,18.63851067550659,44.62525138778686Q18.948450675506592,44.87955138778686,19.270510675506593,45.11845138778686Q19.59256067550659,45.35725138778686,19.92595067550659,45.58005138778687Q20.25933067550659,45.802851387786866,20.603250675506594,46.008951387786865Q20.94717067550659,46.215051387786865,21.300780675506594,46.404051387786865Q21.654400675506594,46.593051387786865,22.016860675506592,46.76455138778687Q22.379330675506594,46.935951387786865,22.74973067550659,47.089451387786866Q23.12023067550659,47.242851387786864,23.497730675506592,47.377951387786865Q23.875230675506593,47.51305138778687,24.25893067550659,47.629451387786865Q24.64263067550659,47.745851387786864,25.03163067550659,47.843251387786864Q25.42053067550659,47.940651387786865,25.813830675506594,48.01885138778687Q26.207030675506594,48.09705138778686,26.603630675506594,48.155951387786864Q27.00033067550659,48.21475138778686,27.39933067550659,48.254051387786866Q27.79833067550659,48.29335138778686,28.198830675506592,48.313051387786864Q28.599330675506593,48.332751387786864,29.000230675506593,48.332751387786864ZM19.762710675506593,32.965451387786864C18.63852067550659,32.79155138778687,18.382260675506593,32.400451387786866,18.382260675506593,31.998951387786864C18.382260675506593,31.597551387786865,18.63853067550659,31.206451387786863,19.762710675506593,31.032551387786867Q23.543130675506593,30.500551387786864,25.471530675506592,28.582951387786864Q27.399930675506592,26.665351387786863,27.934930675506592,22.905981387786866C28.109830675506593,21.788071387786864,28.50313067550659,21.533241387786866,28.90683067550659,21.533241387786866C29.31053067550659,21.533241387786866,29.62733067550659,21.788071387786864,29.878730675506592,22.905981387786866Q30.413730675506592,26.665351387786863,32.342130675506596,28.582951387786864Q34.27043067550659,30.500551387786864,38.12733067550659,31.032551387786867C39.17853067550659,31.265051387786865,39.43133067550659,31.597551387786865,39.43133067550659,31.998951387786864C39.43133067550659,32.400451387786866,39.25493067550659,32.785651387786864,38.12733067550659,32.965451387786864Q34.27043067550659,33.49745138778687,32.342130675506596,35.41505138778686Q30.413730675506592,37.33265138778687,29.878730675506592,41.01595138778687C29.70373067550659,42.13385138778686,29.31053067550659,42.46475138778686,28.90683067550659,42.46475138778686C28.50313067550659,42.46475138778686,28.109830675506593,42.13385138778686,27.934930675506592,41.01595138778687Q27.399930675506592,37.33265138778687,25.471530675506592,35.41505138778686Q23.543130675506593,33.49745138778687,19.762710675506593,32.965451387786864Z" fill-rule="evenodd" fill="#000000" fill-opacity="1"/></g></g></g></g></svg>