<svg xmlns="http://www.w3.org/2000/svg" xmlns:xlink="http://www.w3.org/1999/xlink" fill="none" version="1.1" width="285.333251953125" height="64" viewBox="0 0 285.333251953125 64"><g><g><g><path d="M63.2065,48Q58.3457,48,54.2992,46.6432Q50.2526,45.2855,46.8889,42.0918L50.909,38.444900000000004Q53.0691,40.5875,56.7895,41.9178Q59.6211,43.0257,63.0318,43.0256Q64.35470000000001,43.0256,65.7288,42.854600000000005Q67.10300000000001,42.683499999999995,68.2704,42.227000000000004Q69.43780000000001,41.7705,70.14869999999999,40.839200000000005Q70.8596,40.1292,70.8596,39.0497Q70.8596,37.294,68.4168,36.4422Q67.14330000000001,35.976600000000005,65.44069999999999,35.5484Q63.7381,35.119299999999996,61.6485,34.770700000000005Q58.1326,34.077200000000005,55.4428,33.209900000000005Q52.7539,32.3417,50.9891,30.9483Q49.7321,29.885199999999998,49.0395,28.4068Q48.3469,26.9283,48.3469,24.968629999999997Q48.3469,22.899160000000002,49.4137,21.27432Q50.4814,19.64857,52.4054,18.44275Q54.3294,17.23601,56.8975,16.618463Q59.4656,16,62.4051,16Q64.9585,16,67.6712,16.526059Q70.38380000000001,17.0512,72.38669999999999,17.90755Q74.4813,19.03095,76.2824,20.67882L73.09389999999999,24.64583Q71.6365,23.48941,70.1743,22.80859Q68.26859999999999,21.9056,66.2586,21.40712Q64.24860000000001,20.90759,62.4563,20.90755Q61.0776,20.90755,59.7099,21.07856Q58.3421,21.24964,57.1738,21.67687Q56.0064,22.10412,55.3257,23.00712Q54.6459,23.686880000000002,54.6459,24.70515Q54.6459,25.38674,55.0155,25.9869Q55.3861,26.586199999999998,56.0768,27.0427Q57.2305,27.7307,59.2103,28.2741Q61.191,28.8166,63.7061,29.2851Q66.8926,29.8825,69.5741,30.6876Q72.25659999999999,31.4927,74.1184,32.7287Q75.5731,33.729600000000005,76.3498,35.0763Q77.1274,36.423,77.1274,38.2299Q77.1274,41.2774,75.2419,43.485Q73.3563,45.6927,70.2475,46.8463Q67.1396,48,63.2065,48ZM177.556,32C177.556,40.836600000000004,170.392,48,161.556,48C152.719,48,145.556,40.836600000000004,145.556,32C145.556,23.16344,152.719,16,161.556,16C170.392,16,177.556,23.16344,177.556,32ZM242.889,32C242.889,40.836600000000004,235.725,48,226.889,48C218.052,48,210.889,40.836600000000004,210.889,32C210.889,23.16344,218.052,16,226.889,16C235.725,16,242.889,23.16344,242.889,32ZM30.233,16.563802C30.1951,16.490595,30.1188,16.444444,30.0355,16.444444L24.7179,16.444444C24.6321,16.444444,24.5539,16.493238,24.5173,16.569878L10.0212222,46.8863C9.99610135,46.9388,9.99316875,46.9991,10.0130299,47.053799999999995C10.0328903,47.1085,10.0739196,47.153099999999995,10.127125,47.178C10.156742,47.1918,10.189099,47.1988,10.221852,47.1988L11.65648,47.1988C11.675699999999999,47.1988,11.69481,47.1965,11.71339,47.1916L31.6445,41.9657C31.7014,41.9508,31.7499,41.9142,31.7795,41.8639C31.809,41.8137,31.8171,41.7539,31.802,41.6977C31.7989,41.686099999999996,31.7948,41.674800000000005,31.7898,41.663799999999995L29.7967,37.309C29.7519,37.2111,29.6417,37.1597,29.5367,37.1877L19.349130000000002,39.9006L26.4673,23.52713Q26.8012,22.85613,26.971,22.49371Q27.0821,22.25672,27.2315,21.92578Q27.3762,22.248359999999998,27.4943,22.49023Q27.6767,22.86337,28.0087,23.516280000000002L39.456,47.0747C39.4929,47.1506,39.5707,47.1988,39.656,47.1988L45.7471,47.1988C45.8696,47.1988,45.969,47.1008,45.969,46.9798C45.969,46.9451,45.9606,46.9109,45.9446,46.879999999999995L30.233,16.563802ZM114.56,16.465615C114.437,16.465615,114.338,16.563689,114.338,16.684668L114.338,46.9798C114.338,47.1008,114.437,47.198899999999995,114.56,47.198899999999995L119.767,47.198899999999995C119.89,47.198899999999995,119.989,47.1008,119.989,46.9798L119.987,21.12691L131.44,21.12691Q133.966,21.12692,135.29399999999998,22.51785Q136.627,23.91431,136.627,26.2718Q136.627,28.5875,135.298,30.046599999999998Q133.98000000000002,31.4955,131.44,31.4955L123.273,31.4954C123.151,31.4954,123.051,31.5935,123.051,31.7145L123.051,32.6072C123.051,32.663,123.073,32.7168,123.112,32.7575L136.84199999999998,47.1301C136.88400000000001,47.174,136.942,47.198899999999995,137.00400000000002,47.198899999999995L143.426,47.198899999999995C143.548,47.198899999999995,143.648,47.1008,143.648,46.9798C143.648,46.923100000000005,143.625,46.8686,143.585,46.8277L133.074,36.071Q136.893,35.8191,139.522,33.2889Q142.324,30.5917,142.324,26.1152Q142.324,21.6428,139.615,19.05275Q136.90800000000002,16.465615,132.01999999999998,16.465615L114.56,16.465615ZM79.5252,16.465615C79.4026,16.465615,79.3033,16.563689,79.3033,16.684668L79.3033,21.1C79.3033,21.22098,79.4026,21.31906,79.5252,21.31906L91.8759,21.31906L91.8759,46.9798C91.8759,47.1008,91.9753,47.198899999999995,92.0978,47.198899999999995L97.3384,47.198899999999995C97.4609,47.198899999999995,97.5602,47.1008,97.5602,46.9798L97.5602,21.31906L109.91,21.31906C110.033,21.31906,110.132,21.22098,110.132,21.1L110.132,16.684668C110.132,16.563689,110.033,16.465615,109.91,16.465615L79.5252,16.465615ZM205.475,28.8619Q206.744,27.019399999999997,206.744,24.313760000000002Q206.744,20.36773,204.111,18.40578Q201.508,16.465523,197.039,16.465671L181.199,16.465671C181.077,16.465671,180.977,16.563659,180.977,16.684638L180.977,46.9798C180.977,47.1008,181.077,47.199,181.199,47.199L197.642,47.199Q202.087,47.199,205.079,44.9854Q208.102,42.7499,208.101,38.437200000000004Q208.101,35.0182,206.429,33.161Q204.979,31.5506,203.069,31.0173Q204.415,30.4008,205.475,28.8619ZM248.817,16.975424L275.277,47.1967C275.313,47.236000000000004,275.333,47.285399999999996,275.333,47.336600000000004C275.333,47.457300000000004,275.224,47.555099999999996,275.088,47.555099999999996L268.426,47.5552C268.354,47.5552,268.286,47.527,268.24,47.4782L258.36199999999997,36.1983L248.813,47.4721C248.767,47.5243,248.696,47.5548,248.621,47.5548L241.801,47.5556C241.745,47.5556,241.691,47.5382,241.648,47.5072C241.597,47.471000000000004,241.564,47.4183,241.557,47.3607C241.55,47.3031,241.569,47.245400000000004,241.609,47.2001L254.289,32.498599999999996L241.606,17.24047C241.573,17.20224,241.556,17.15541,241.556,17.10716C241.556,16.986441,241.665,16.888889,241.801,16.888889L248.621,16.888889C248.698,16.888889,248.77,16.921014,248.817,16.975424ZM263.20799999999997,29.9255L260.16700000000003,26.4015C260.07,26.288899999999998,260.071,26.1297,260.16999999999996,26.0185L268.236,16.969387C268.283,16.918393000000002,268.353,16.888889,268.426,16.888889L275.088,16.888889C275.144,16.888889,275.198,16.905852,275.242,16.936987C275.292,16.973268,275.325,17.02603,275.332,17.083660000000002C275.339,17.141280000000002,275.32,17.19906,275.279,17.24427L263.72900000000004,29.931800000000003C263.592,30.0815,263.34000000000003,30.078400000000002,263.20799999999997,29.9255ZM199.984,21.96632Q201.186,23.00206,201.186,25.07309Q201.186,27.1368,199.978,28.2419Q198.763,29.131,196.431,29.131L186.572,29.131L186.572,20.91923L196.433,20.91923Q198.769,20.91923,199.984,21.96632ZM172.222,32C172.222,37.891,167.447,42.6667,161.556,42.6667C155.665,42.6667,150.889,37.891,150.889,32C150.889,26.109,155.665,21.33333,161.556,21.33333C167.447,21.33333,172.222,26.109,172.222,32ZM237.556,32C237.556,37.891,232.78,42.6667,226.889,42.6667C220.998,42.6667,216.222,37.891,216.222,32C216.222,26.109,220.998,21.33333,226.889,21.33333C232.78,21.33333,237.556,26.109,237.556,32ZM200.898,34.481700000000004Q202.384,35.6202,202.384,37.900800000000004Q202.384,40.4831,200.896,41.645399999999995Q199.384,42.8257,197.015,42.8257L186.572,42.8257L186.572,33.5457L197.015,33.5457Q199.386,33.5457,200.898,34.481700000000004Z" fill-rule="evenodd" fill="#000000" fill-opacity="1"/></g></g></g></svg>