<svg xmlns="http://www.w3.org/2000/svg" xmlns:xlink="http://www.w3.org/1999/xlink" fill="none" version="1.1" width="596"
    height="596" viewBox="0 0 596 596">
    <path
        d="M175.5,152.5678C175.5,115.41749999999999,175.5,101.9762,180.73169000000001,91.7085C185.33361,82.6767,192.6767,75.33361,201.70850000000002,70.73169C211.9762,65.5,225.4175,65.5,262.56780000000003,65.5L334.432,65.5C371.58299999999997,65.5,385.024,65.5,395.29200000000003,70.73169C404.323,75.33361,411.666,82.6767,416.26800000000003,91.7085C421.5,101.9762,421.5,115.41749999999999,421.5,152.5678L421.5,442.432C421.5,479.583,421.5,493.024,416.26800000000003,503.292C411.666,512.323,404.323,519.6659999999999,395.29200000000003,524.268C385.024,529.5,371.58299999999997,529.5,334.432,529.5L262.56780000000003,529.5C225.4175,529.5,211.9762,529.5,201.70850000000002,524.268C192.6767,519.6659999999999,185.33361,512.323,180.73169000000001,503.292C175.5,493.024,175.5,479.583,175.5,442.432L175.5,152.5678Z"
        fill="#000000" fill-opacity="0.30000001192092896" />
    <path
        d="M146.5,160.33499999999998Q146.5,120.7785,147.354498,108.6429Q148.72922,89.119,154.67451,77.4507Q165.7378,55.7378,187.45069999999998,44.67451Q199.119,38.72922,218.6429,37.354498Q230.7785,36.5,270.335,36.5L325.66499999999996,36.5Q365.222,36.5,377.35699999999997,37.354498Q396.881,38.72922,408.549,44.67451Q430.262,55.7378,441.326,77.4507Q447.271,89.119,448.646,108.6429Q449.5,120.7783,449.5,160.33499999999998L449.5,435.665Q449.5,475.222,448.646,487.357Q447.271,506.881,441.326,518.549Q430.262,540.262,408.549,551.325Q396.881,557.271,377.35699999999997,558.646Q365.222,559.5,325.66499999999996,559.5L270.335,559.5Q230.7783,559.5,218.6429,558.646Q199.119,557.271,187.45069999999998,551.326Q165.7378,540.262,154.67451,518.549Q148.72922,506.881,147.354498,487.357Q146.5,475.221,146.5,435.665L146.5,160.33499999999998ZM161.5,160.33499999999998C161.5,113.8969,161.5,97.09530000000001,168.0396,84.2606C173.792,72.9708,182.9709,63.792,194.2606,58.0396C207.0953,51.5,223.89690000000002,51.5,270.335,51.5L325.66499999999996,51.5C372.103,51.5,388.905,51.5,401.73900000000003,58.0396C413.029,63.792,422.208,72.9709,427.96,84.2606C434.5,97.09530000000001,434.5,113.8969,434.5,160.33499999999998L434.5,435.665C434.5,482.103,434.5,498.905,427.96,511.739C422.208,523.029,413.029,532.2080000000001,401.73900000000003,537.96C388.905,544.5,372.103,544.5,325.66499999999996,544.5L270.335,544.5C223.89690000000002,544.5,207.0953,544.5,194.2606,537.96C182.9708,532.2080000000001,173.792,523.029,168.0396,511.739C161.5,498.905,161.5,482.103,161.5,435.665L161.5,160.33499999999998Z"
        fill-rule="evenodd" fill="#000000" fill-opacity="1" />
</svg>