<svg xmlns="http://www.w3.org/2000/svg" xmlns:xlink="http://www.w3.org/1999/xlink" fill="none" version="1.1" width="596"
    height="596" viewBox="0 0 596 596">
    <path
        d="M82,227.833C82,148.115,82,119.2719,93.2263,97.239C103.1013,77.8583,118.8583,62.101299999999995,138.239,52.2263C160.27190000000002,41,189.115,41,268.83299999999997,41L327.16700000000003,41C406.885,41,435.728,41,457.761,52.2263C477.142,62.101299999999995,492.899,77.8583,502.774,97.239C514,119.2719,514,148.115,514,227.833L514,368.167C514,447.885,514,476.728,502.774,498.761C492.899,518.142,477.142,533.899,457.761,543.774C435.728,555,406.885,555,327.16700000000003,555L268.83299999999997,555C189.115,555,160.27190000000002,555,138.239,543.774C118.8583,533.899,103.1013,518.142,93.2263,498.761C82,476.728,82,447.885,82,368.167L82,227.833Z"
        fill="#000000" fill-opacity="0.30000001192092896" />
    <path
        d="M52,240.042Q51.9999961853,162.758,53.6447,139.399Q56.14137,103.9416,66.4961,83.6193Q86.11500000000001,45.115,124.6193,25.4961Q144.9416,15.14137,180.399,12.6447Q203.758,11,281.04200000000003,11L314.958,11Q392.242,11.0000038147,415.601,12.6447Q451.058,15.14138,471.381,25.4961Q509.885,45.115,529.504,83.6193Q539.8589999999999,103.9416,542.355,139.399Q544,162.758,544,240.042L544,355.958Q544,433.243,542.355,456.601Q539.8589999999999,492.058,529.504,512.381Q509.885,550.885,471.381,570.504Q451.059,580.859,415.601,583.355Q392.243,585,314.958,585L281.04200000000003,585Q203.757,585,180.399,583.355Q144.9414,580.859,124.6193,570.504Q86.11500000000001,550.885,66.4961,512.381Q56.14138,492.058,53.6447,456.601Q52,433.242,52,355.958L52,240.042ZM67,240.042C67,148.714,67,115.671,79.8612,90.4291C91.1743,68.226,109.226,50.1743,131.4291,38.8612C156.671,26,189.714,26,281.04200000000003,26L314.958,26C406.286,26,439.329,26,464.571,38.8612C486.774,50.1743,504.826,68.226,516.139,90.4291C529,115.671,529,148.714,529,240.042L529,355.958C529,447.286,529,480.329,516.139,505.571C504.826,527.774,486.774,545.826,464.571,557.139C439.329,570,406.286,570,314.958,570L281.04200000000003,570C189.714,570,156.671,570,131.4291,557.139C109.226,545.826,91.1743,527.774,79.8612,505.571C67,480.329,67,447.286,67,355.958L67,240.042Z"
        fill-rule="evenodd" fill="#000000" fill-opacity="1" />
    <path
        d="M557,266.5C557,261.80558,560.80558,258,565.5,258C570.1944,258,574,261.80558,574,266.5L574,329.5C574,334.1944,570.1944,338,565.5,338C560.80558,338,557,334.1944,557,329.5L557,266.5Z"
        fill="#000000" fill-opacity="1" />
</svg>