<svg xmlns="http://www.w3.org/2000/svg" xmlns:xlink="http://www.w3.org/1999/xlink" fill="none" version="1.1" width="596"
    height="596" viewBox="0 0 596 596">
    <path
        d="M298,579.5C453.468,579.5,579.5,453.468,579.5,298C579.5,142.53199999999998,453.468,16.5,298,16.5C142.53199999999998,16.5,16.5,142.53199999999998,16.5,298C16.5,453.468,142.53199999999998,579.5,298,579.5ZM298,31.5C445.184,31.5,564.5,150.816,564.5,298C564.5,445.184,445.184,564.5,298,564.5C150.816,564.5,31.5,445.184,31.5,298C31.5,150.816,150.816,31.5,298,31.5Z"
        fill-rule="evenodd" fill="#000000" fill-opacity="0.8999999761581421" />
    <path
        d="M511.82672119140625,88.78069305419922C511.82672119140625,90.69730305419922,512.5604791914062,92.54119305419923,513.8773411914062,93.93379305419921Q537.2632211914063,118.66429305419922,554.4387211914062,147.9534930541992L554.4477211914062,147.96879305419924C555.7939211914063,150.26479305419923,558.2560211914063,151.67529305419922,560.9176211914063,151.67529305419922C565.0597211914062,151.67529305419922,568.4176211914063,148.31749305419922,568.4176211914063,144.17529305419922C568.4176211914063,142.84169305419923,568.0620211914063,141.53229305419922,567.3875211914062,140.38179305419922Q549.3436211914062,109.60769305419922,524.7761211914062,83.62761305419922C523.3594211914062,82.12951405419922,521.3885611914062,81.28069305419922,519.3267211914062,81.28069305419922C515.1845811914062,81.28069305419922,511.82672119140625,84.63855305419922,511.82672119140625,88.78069305419922Z"
        fill-rule="evenodd" fill="#000000" fill-opacity="0.8999999761581421" />
    <path
        d="M550.9229233703613,297.99992337036133Q550.9229233703613,304.20892337036133,550.6179233703613,310.40992337036135Q550.3139233703614,316.61192337036135,549.7049233703613,322.7909233703613Q549.0969233703613,328.9699233703613,548.1859233703613,335.11192337036135Q547.2749233703613,341.2529233703613,546.0629233703613,347.34292337036135Q544.8519233703613,353.43192337036135,543.3429233703614,359.4549233703613Q541.8349233703614,365.47792337036134,540.0319233703613,371.41992337036135Q538.2299233703613,377.3609233703613,536.1379233703612,383.2069233703613Q534.0459233703614,389.0529233703613,531.6699233703614,394.7889233703613Q529.2939233703613,400.52592337036134,526.6399233703613,406.13892337036134Q523.9849233703613,411.7509233703613,521.0579233703613,417.2269233703613Q518.1309233703613,422.7029233703613,514.9389233703614,428.02792337036135Q511.74692337036134,433.3539233703613,508.29792337036133,438.5169233703613Q504.84792337036134,443.6789233703613,501.1499233703613,448.6659233703613Q497.45092337036135,453.65292337036135,493.51192337036133,458.4529233703613Q489.5729233703613,463.25192337036134,485.4039233703613,467.85292337036134Q481.2339233703613,472.4529233703613,476.8439233703613,476.8439233703613Q472.4529233703613,481.2339233703613,467.85292337036134,485.4039233703613Q463.25192337036134,489.5729233703613,458.4529233703613,493.51192337036133Q453.65292337036135,497.45092337036135,448.6659233703613,501.1499233703613Q443.6789233703613,504.84792337036134,438.5169233703613,508.29792337036133Q433.3539233703613,511.74692337036134,428.02792337036135,514.9389233703614Q422.7029233703613,518.1309233703613,417.2269233703613,521.0579233703613Q411.7509233703613,523.9849233703613,406.13892337036134,526.6399233703613Q400.52592337036134,529.2939233703613,394.78992337036135,531.6699233703614Q389.0529233703613,534.0459233703614,383.2069233703613,536.1379233703612Q377.3609233703613,538.2299233703613,371.41992337036135,540.0319233703613Q365.47792337036134,541.8349233703614,359.4549233703613,543.3429233703614Q353.43192337036135,544.8519233703613,347.34292337036135,546.0629233703613Q341.2529233703613,547.2749233703613,335.11192337036135,548.1859233703613Q328.9699233703613,549.0969233703613,322.7909233703613,549.7049233703613Q316.61192337036135,550.3139233703614,310.40992337036135,550.6179233703613Q304.20892337036133,550.9229233703613,297.99992337036133,550.9229233703613Q291.7909233703613,550.9229233703613,285.58992337036136,550.6179233703613Q279.38792337036136,550.3139233703614,273.20892337036133,549.7049233703613Q267.0299233703613,549.0969233703613,260.88892337036134,548.1859233703613Q254.74692337036132,547.2749233703613,248.65692337036134,546.0629233703613Q242.56792337036134,544.8519233703613,236.54492337036132,543.3429233703614Q230.52192337036132,541.8349233703614,224.5799233703613,540.0319233703613Q218.63892337036134,538.2299233703613,212.79292337036134,536.1379233703612Q206.94692337036133,534.0459233703614,201.21092337036131,531.6699233703614Q195.47392337036132,529.2939233703613,189.86192337036132,526.6399233703613Q184.24892337036133,523.9849233703613,178.77292337036133,521.0579233703613Q173.29692337036133,518.1309233703613,167.9719233703613,514.9389233703614Q162.64592337036134,511.74692337036134,157.4839233703613,508.29792337036133Q152.32092337036133,504.84792337036134,147.33392337036133,501.1499233703613Q142.34682337036134,497.45092337036135,137.5473233703613,493.51192337036133Q132.7477233703613,489.5729233703613,128.14722337036133,485.4039233703613Q123.54672337036133,481.2339233703613,119.15632337036133,476.8439233703613Q114.76602337036132,472.4529233703613,110.59632337036133,467.85292337036134Q106.42672337036133,463.25192337036134,102.48782337036133,458.4529233703613Q98.54892337036134,453.65292337036135,94.85032337036134,448.6659233703613Q91.15162337036134,443.6789233703613,87.70212337036133,438.5169233703613Q84.25262337036133,433.3539233703613,81.06062337036133,428.02792337036135Q77.86862337036132,422.7029233703613,74.94172337036133,417.2269233703613Q72.01492337036133,411.7509233703613,69.36022337036133,406.13892337036134Q66.70562337036132,400.52592337036134,64.32952337036133,394.78992337036135Q61.953523370361324,389.0529233703613,59.86182337036133,383.2069233703613Q57.77002337036133,377.3609233703613,55.96772337036133,371.41992337036135Q54.16535337036133,365.47792337036134,52.65670337036133,359.4549233703613Q51.14806337036133,353.43192337036135,49.93676337036133,347.34292337036135Q48.72547337036133,341.2529233703613,47.81443337036133,335.11192337036135Q46.90339337036133,328.9699233703613,46.294813370361325,322.7909233703613Q45.686237370361326,316.61192337036135,45.38158037036133,310.40992337036135Q45.07692337036133,304.20892337036133,45.07692337036133,297.99992337036133Q45.07692337036133,291.7909233703613,45.38158037036133,285.58992337036136Q45.686237370361326,279.38792337036136,46.294813370361325,273.20892337036133Q46.90339337036133,267.0299233703613,47.81443337036133,260.88892337036134Q48.72547337036133,254.74692337036132,49.93676337036133,248.65692337036134Q51.14806337036133,242.56792337036134,52.65671337036133,236.54492337036132Q54.16535337036133,230.52192337036132,55.96772337036133,224.5799233703613Q57.77002337036133,218.63892337036134,59.86182337036133,212.79292337036134Q61.953523370361324,206.94692337036133,64.32952337036133,201.21092337036131Q66.70562337036132,195.47392337036132,69.36022337036133,189.86192337036132Q72.01492337036133,184.24892337036133,74.94172337036133,178.77292337036133Q77.86862337036132,173.29692337036133,81.06062337036133,167.9719233703613Q84.25262337036133,162.64592337036134,87.70212337036133,157.4839233703613Q91.15162337036134,152.32092337036133,94.85022337036133,147.33392337036133Q98.54892337036134,142.34682337036134,102.48782337036133,137.5473233703613Q106.42672337036133,132.7477233703613,110.59632337036133,128.14722337036133Q114.76602337036132,123.54672337036133,119.15632337036133,119.15632337036133Q123.54672337036133,114.76602337036132,128.14722337036133,110.59632337036133Q132.7477233703613,106.42672337036133,137.5473233703613,102.48782337036133Q142.34682337036134,98.54892337036134,147.33392337036133,94.85032337036134Q152.32092337036133,91.15162337036134,157.4839233703613,87.70212337036133Q162.64592337036134,84.25262337036133,167.9719233703613,81.06062337036133Q173.29692337036133,77.86862337036132,178.77292337036133,74.94172337036133Q184.24892337036133,72.01492337036133,189.86092337036132,69.36022337036133Q195.47392337036132,66.70562337036132,201.21092337036131,64.32952337036133Q206.94692337036133,61.953523370361324,212.79292337036134,59.86182337036133Q218.63892337036134,57.77002337036133,224.5799233703613,55.96772337036133Q230.52192337036132,54.16535337036133,236.54492337036132,52.65670337036133Q242.56792337036134,51.14806337036133,248.65692337036134,49.93676337036133Q254.74692337036132,48.72547337036133,260.88892337036134,47.81443337036133Q267.0299233703613,46.90339337036133,273.20892337036133,46.294813370361325Q279.38792337036136,45.686237370361326,285.58992337036136,45.38158037036133Q291.7909233703613,45.07692337036133,297.99992337036133,45.07692337036133Q304.20892337036133,45.07692337036133,310.40992337036135,45.38158037036133Q316.61192337036135,45.686237370361326,322.7909233703613,46.294813370361325Q328.9699233703613,46.90339337036133,335.11192337036135,47.81443337036133Q341.2529233703613,48.72547337036133,347.34292337036135,49.93676337036133Q353.43192337036135,51.14806337036133,359.4549233703613,52.65671337036133Q365.47792337036134,54.16535337036133,371.41992337036135,55.96772337036133Q377.3609233703613,57.77002337036133,383.2069233703613,59.86182337036133Q389.0529233703613,61.953523370361324,394.7889233703613,64.32952337036133Q400.52592337036134,66.70562337036132,406.13892337036134,69.36022337036133Q411.7509233703613,72.01492337036133,417.2269233703613,74.94172337036133Q422.7029233703613,77.86862337036132,428.02792337036135,81.06062337036133Q433.3539233703613,84.25262337036133,438.5169233703613,87.70212337036133Q443.6789233703613,91.15162337036134,448.6659233703613,94.85022337036133Q453.65292337036135,98.54892337036134,458.4529233703613,102.48782337036133Q463.25192337036134,106.42672337036133,467.85292337036134,110.59632337036133Q472.4529233703613,114.76602337036132,476.8439233703613,119.15632337036133Q481.2339233703613,123.54672337036133,485.4039233703613,128.14722337036133Q489.5729233703613,132.7477233703613,493.51192337036133,137.5473233703613Q497.45092337036135,142.34682337036134,501.1499233703613,147.33392337036133Q504.84792337036134,152.32092337036133,508.29792337036133,157.4839233703613Q511.74692337036134,162.64592337036134,514.9389233703614,167.9719233703613Q518.1309233703613,173.29692337036133,521.0579233703613,178.77292337036133Q523.9849233703613,184.24892337036133,526.6399233703613,189.86092337036132Q529.2939233703613,195.47392337036132,531.6699233703614,201.21092337036131Q534.0459233703614,206.94692337036133,536.1379233703612,212.79292337036134Q538.2299233703613,218.63892337036134,540.0319233703613,224.5799233703613Q541.8349233703614,230.52192337036132,543.3429233703614,236.54492337036132Q544.8519233703613,242.56792337036134,546.0629233703613,248.65692337036134Q547.2749233703613,254.74692337036132,548.1859233703613,260.88892337036134Q549.0969233703613,267.0299233703613,549.7049233703613,273.20892337036133Q550.3139233703614,279.38792337036136,550.6179233703613,285.58992337036136Q550.9229233703613,291.7909233703613,550.9229233703613,297.99992337036133Z"
        fill="#000000" fill-opacity="0.30000001192092896" />
</svg>