<svg xmlns="http://www.w3.org/2000/svg" xmlns:xlink="http://www.w3.org/1999/xlink" fill="none" version="1.1" width="596"
    height="596" viewBox="0 0 596 596">
    <path
        d="M130,145.0678C130,107.91749999999999,130,94.4762,135.23169000000001,84.2085C139.83361,75.1767,147.1767,67.83361,156.20850000000002,63.23169C166.4762,58,179.9175,58,217.0678,58L378.932,58C416.083,58,429.524,58,439.792,63.23169C448.823,67.83361,456.166,75.1767,460.768,84.2085C466,94.4762,466,107.91749999999999,466,145.0678L466,450.932C466,488.083,466,501.524,460.768,511.792C456.166,520.823,448.823,528.1659999999999,439.792,532.768C429.524,538,416.083,538,378.932,538L217.0678,538C179.9175,538,166.4762,538,156.20850000000002,532.768C147.1767,528.1659999999999,139.83361,520.823,135.23169000000001,511.792C130,501.524,130,488.083,130,450.932L130,145.0678Z"
        fill="#000000" fill-opacity="0.30000001192092896" />
    <path
        d="M100,157.276Q100,115.7688,100.89537,103.0527Q102.32813,82.7047,108.50149,70.5887Q120.0073,48.0073,142.58870000000002,36.501490000000004Q154.7047,30.32813,175.05270000000002,28.89537Q187.7688,28,229.276,28L366.724,28Q408.231,28,420.947,28.89537Q441.295,30.32812,453.411,36.501490000000004Q475.993,48.0073,487.499,70.58879999999999Q493.672,82.7046,495.105,103.0527Q496,115.7689,496,157.276L496,438.724Q496,480.231,495.105,492.947Q493.672,513.2950000000001,487.499,525.4110000000001Q475.993,547.993,453.411,559.499Q441.295,565.672,420.947,567.105Q408.231,568,366.724,568L229.276,568Q187.7689,568,175.05270000000002,567.105Q154.7046,565.672,142.5888,559.499Q120.0073,547.993,108.50149,525.4110000000001Q102.32812,513.2950000000001,100.89537,492.947Q100,480.231,100,438.724L100,157.276ZM115,157.276C115,108.5167,115,90.875,121.8666,77.3986C127.9066,65.5444,137.5444,55.9066,149.3986,49.8666C162.875,43,180.51670000000001,43,229.276,43L366.724,43C415.483,43,433.125,43,446.601,49.8666C458.456,55.9066,468.093,65.5444,474.133,77.3986C481,90.875,481,108.5167,481,157.276L481,438.724C481,487.483,481,505.125,474.133,518.601C468.093,530.456,458.456,540.093,446.601,546.133C433.125,553,415.483,553,366.724,553L229.276,553C180.51670000000001,553,162.875,553,149.3986,546.133C137.5444,540.093,127.9066,530.456,121.8666,518.601C115,505.125,115,487.483,115,438.724L115,157.276Z"
        fill-rule="evenodd" fill="#000000" fill-opacity="1" />
</svg>