<svg xmlns="http://www.w3.org/2000/svg" xmlns:xlink="http://www.w3.org/1999/xlink" fill="none" version="1.1" width="596"
    height="596" viewBox="0 0 596 596">
    <path
        d="M395.974,111.0015C381.126,69.9492,342.361,38,298,38C253.63909999999998,38,214.8736,69.9495,200.02612,111.0021C197.91515,116.2202,196.35938,121.9973,195.21279,128.9066C194.65151,132.0479,194.23059,135.22039999999998,193.95711,138.41500000000002C192.00000154972,157.37,192.00000154972,184.093,192.00000154972,226.268L192,370.254C191.9999830723,441.909,192.0000534058,468.962,201.59863,489.093C217.4778,528.156,255.1256,558,298,558C340.875,558,378.522,528.156,394.401,489.093C404,468.962,404,441.909,404,370.254L404,226.268C404,184.093,404,157.369,402.04200000000003,138.414C401.77,135.2202,401.349,132.0488,400.788,128.9085C399.64099999999996,121.998,398.08500000000004,116.2203,395.974,111.0015Z"
        fill-rule="evenodd" fill="#000000" fill-opacity="0.30000001192092896" />
    <path
        d="M374.118,562.3489980926514Q339.297,587.9999980926514,298,587.9999980926514Q256.703,587.9999980926514,221.8827,562.3489980926514Q189.5392,538.5219980926514,174.1191,501.15199809265135Q165.31291,482.0979980926514,163.26456,450.96499809265134Q161.9999847412,431.7439980926514,162,370.2539980926514L162.00000190735,226.26799809265137Q162.00000286102,155.82499809265136,164.06643,135.85699809265137Q164.59129,129.72499809265136,165.61754,123.99499809265137Q167.79385,110.88099809265137,171.99745000000001,100.29579809265137Q186.4222,60.83409809265137,219.6796,35.30809809265136Q255.2588,8.000003814701367,298,7.999998092651367Q340.741,7.999998092651367,376.32,35.30779809265137Q409.577,60.833398092651365,424.002,100.29449809265137Q428.205,110.87299809265137,430.321,123.63399809265137Q431.411,129.73799809265137,431.884,135.33199809265136Q434,155.82399809265138,434,226.26799809265137L434,370.2539980926514Q434,431.7449980926514,432.735,450.96499809265134Q430.687,482.0979980926514,421.881,501.1529980926514Q406.461,538.5219980926514,374.118,562.3489980926514ZM408.137,495.1339980926514Q394.31899999999996,528.8349980926514,365.221,550.2719980926514Q334.369,572.9999980926514,298,572.9999980926514Q261.6316,572.9999980926514,230.7794,550.2719980926514Q201.6807,528.8349980926514,187.8631,495.1339980926514Q180.1136,478.57499809265136,178.2322,449.9799980926514Q177,431.25099809265134,177,370.2539980926514L177,226.26799809265137Q177,156.59799809265138,179.0118,137.13599809265136Q179.478,131.68999809265136,180.4152,126.45099809265136Q182.3482,114.80299809265136,186.0135,105.64359809265137Q198.93110000000001,70.14219809265137,228.8126,47.20719809265137Q260.3517,22.999998092651367,298,22.999998092651367Q335.648,22.999998092651367,367.187,47.20699809265137Q397.06899999999996,70.14169809265137,409.986,105.64309809265137Q413.651,114.79899809265137,415.554,126.27099809265137Q416.523,131.69499809265136,416.96299999999997,136.87299809265136Q419,156.59699809265138,419,226.26799809265137L419,370.2539980926514Q419,431.2519980926514,417.76800000000003,449.9799980926514Q415.88599999999997,478.57499809265136,408.137,495.1339980926514Z"
        fill-rule="evenodd" fill="#000000" fill-opacity="1" />
</svg>