<svg xmlns="http://www.w3.org/2000/svg" fill="none" width="400" height="300">
    <defs>
        <clipPath id="prefix__master_svg0_57_250">
            <rect width="400" height="300" rx="0" />
        </clipPath>
    </defs>
    <g clip-path="url(#prefix__master_svg0_57_250)">
        <path d="M167.45 134.494q7.768 13.14 21.92 25.771L116 169l-20-26 71.45-8.506z" fill-rule="evenodd" fill="#000"
            fill-opacity=".2" style="mix-blend-mode:passthrough" />
        <path d="M210.63 160.265q14.152-12.63 21.92-25.771L304 143l-20 26-73.37-8.735z" fill-rule="evenodd" fill="#000"
            fill-opacity=".3" style="mix-blend-mode:passthrough" />
        <path
            d="M355.583 164.978l-.557-.001h-67.931L304 143l-50.68-6.033c5.209-17.343 23.282-21.51 38.414-10.939Q294.655 90 330.684 90c36.027 0 34.761 25.804 32.132 36.028q22.396.487 22.396 19.961c0 19.03-21.382 19-29.629 18.989z"
            fill-rule="evenodd" fill="#000" fill-opacity=".3" style="mix-blend-mode:passthrough" />
        <path
            d="M158 101.766C158 78.7 176.804 60 200 60c23.197 0 42 18.7 42 41.766q0 35.291-42 67.234-42-31.943-42-67.234zm25.2 7.734q.103 0 .206-.005t.206-.016q.102-.01.204-.025.102-.015.203-.036.101-.02.202-.045.1-.026.198-.056.099-.03.196-.065.097-.036.192-.075.096-.04.189-.085.093-.045.184-.094.09-.049.18-.103.088-.053.173-.111.086-.058.169-.12.083-.063.162-.129.08-.066.156-.136.077-.07.15-.144.073-.074.142-.15.07-.078.135-.159.065-.08.126-.164.062-.084.12-.17.056-.088.11-.177.053-.09.101-.182.049-.092.093-.186t.083-.19q.04-.097.074-.195.035-.099.065-.198.03-.1.055-.201.025-.102.045-.204.02-.102.036-.205.015-.104.025-.207.01-.104.015-.209.005-.104.005-.208t-.005-.209q-.005-.104-.015-.208-.01-.103-.025-.207-.016-.103-.036-.205-.02-.103-.045-.204-.025-.1-.055-.2t-.065-.199q-.034-.098-.074-.194-.04-.097-.083-.191-.044-.094-.093-.186-.048-.093-.101-.182-.053-.09-.11-.176-.058-.087-.12-.17-.061-.084-.126-.165-.066-.08-.135-.158-.07-.077-.142-.151-.073-.074-.15-.144-.076-.07-.156-.136-.08-.067-.162-.129-.083-.062-.169-.12-.085-.058-.174-.111-.088-.054-.18-.103-.09-.05-.183-.094-.094-.045-.189-.085-.095-.04-.192-.075-.097-.035-.196-.065t-.198-.056q-.1-.025-.202-.045-.1-.02-.203-.036-.102-.015-.204-.026-.103-.01-.206-.015-.103-.005-.206-.005t-.206.005q-.103.005-.206.016-.102.01-.204.025-.102.015-.203.036-.102.02-.202.045-.1.026-.198.056-.099.03-.196.065-.097.036-.192.075-.095.04-.189.085-.093.045-.184.094-.09.049-.18.103-.088.053-.173.111-.086.058-.169.12-.083.063-.162.129-.08.066-.157.136-.076.07-.149.144-.073.074-.142.15-.07.078-.135.159-.065.08-.126.164-.062.084-.12.17-.056.088-.11.177-.053.09-.101.182-.049.092-.093.186t-.083.19q-.04.097-.075.195-.034.098-.064.198t-.055.201q-.025.102-.045.204-.02.102-.035.205-.016.104-.026.207-.01.104-.015.209-.005.104-.005.208t.005.209q.005.104.015.208.01.103.025.207.016.103.036.205.02.103.045.204.025.1.055.2t.064.199q.035.098.075.194.04.097.083.191.044.094.093.186.048.092.101.182.053.09.11.176.058.087.12.17.06.084.126.165.066.08.135.158.07.077.142.151.073.074.15.144.076.07.156.136.08.067.162.129.083.062.169.12.085.058.174.111.088.054.18.103.09.05.183.094.094.045.189.085.095.04.192.075.097.035.196.065t.198.056q.1.025.202.045.1.02.203.036.102.015.204.026.103.01.206.015.103.005.206.005zm16.8 0q.103 0 .206-.005t.206-.016q.102-.01.204-.025.102-.015.203-.036.102-.02.202-.045.1-.026.198-.056.099-.03.196-.065.097-.036.192-.075.096-.04.189-.085.093-.045.184-.094.09-.049.18-.103.088-.053.173-.111.086-.058.169-.12.083-.063.162-.129.08-.066.157-.136.076-.07.149-.144.073-.074.142-.15.07-.078.135-.159.065-.08.126-.164.062-.084.12-.17.056-.088.11-.177.053-.09.101-.182.049-.092.093-.186t.083-.19q.04-.097.075-.195.034-.099.064-.198.03-.1.055-.201.025-.102.045-.204.02-.102.036-.205.015-.104.025-.207.01-.104.015-.209.005-.104.005-.208t-.005-.209q-.005-.104-.015-.208-.01-.103-.025-.207-.016-.103-.036-.205-.02-.103-.045-.204-.025-.1-.055-.2t-.065-.199q-.034-.098-.074-.194-.04-.097-.083-.191-.044-.094-.093-.186-.048-.093-.102-.182-.053-.09-.11-.176-.057-.087-.118-.17-.062-.084-.127-.165-.066-.08-.135-.158-.07-.077-.142-.151-.073-.074-.15-.144-.076-.07-.155-.136-.08-.067-.163-.129t-.169-.12q-.085-.058-.174-.111-.088-.054-.18-.103-.09-.05-.183-.094-.093-.045-.189-.085-.095-.04-.192-.075-.097-.035-.196-.065-.098-.03-.198-.056-.1-.025-.202-.045-.1-.02-.203-.036-.102-.015-.204-.026-.103-.01-.206-.015-.103-.005-.206-.005t-.206.005q-.103.005-.206.016-.102.01-.204.025-.102.015-.203.036-.102.02-.202.045-.1.026-.198.056-.099.03-.196.065-.097.036-.192.075-.095.04-.189.085-.093.045-.184.094-.09.049-.18.103-.088.053-.173.111-.086.058-.169.12-.083.063-.162.129-.08.066-.157.136-.076.07-.149.144-.073.074-.142.15-.07.078-.135.159-.065.08-.126.164-.062.084-.12.17-.056.088-.11.177-.052.09-.101.182-.049.092-.093.186t-.083.19q-.04.097-.074.195-.035.098-.065.198t-.055.201q-.025.102-.045.204-.02.102-.035.205-.016.104-.026.207-.01.104-.015.209-.005.104-.005.208t.005.209q.005.104.015.208.01.103.026.207.015.103.035.205.02.103.045.204.025.1.055.2t.065.199q.034.098.074.194.04.097.083.191.044.094.093.186t.102.182q.053.09.11.176.057.087.119.17.061.084.126.165.066.08.135.158.07.077.142.151.073.074.15.144.076.07.156.136.08.067.162.129.083.062.169.12.085.058.174.111.088.054.18.103.09.05.183.094.094.045.189.085.095.04.192.075.097.035.196.065t.198.056q.1.025.202.045.1.02.203.036.102.015.204.026.103.01.206.015.103.005.206.005zm16.8 0q.103 0 .206-.005t.206-.016q.102-.01.204-.025.102-.015.203-.036.102-.02.202-.045.1-.026.198-.056.099-.03.196-.065.097-.036.192-.075.095-.04.189-.085.093-.045.184-.094.09-.049.18-.103.088-.053.173-.111.086-.058.169-.12.083-.063.162-.129.08-.066.156-.136.077-.07.15-.144.073-.074.142-.15.07-.078.135-.159.065-.08.126-.164.062-.084.12-.17.056-.088.11-.177.052-.09.101-.182.049-.092.093-.186t.083-.19q.04-.097.075-.195.034-.099.064-.198.03-.1.055-.201.025-.102.045-.204.02-.102.035-.205.016-.104.026-.207.01-.104.015-.209.005-.104.005-.208t-.005-.209q-.005-.104-.015-.208-.01-.103-.025-.207-.016-.103-.036-.205-.02-.103-.045-.204-.025-.1-.055-.2t-.064-.199q-.035-.098-.075-.194-.04-.097-.083-.191-.044-.094-.093-.186-.049-.093-.102-.182-.053-.09-.11-.176-.057-.087-.119-.17-.061-.084-.126-.165-.066-.08-.135-.158-.07-.077-.142-.151-.073-.074-.15-.144-.076-.07-.156-.136-.08-.067-.162-.129-.083-.062-.169-.12-.085-.058-.174-.111-.088-.054-.18-.103-.09-.05-.183-.094-.094-.045-.189-.085-.095-.04-.192-.075-.097-.035-.196-.065t-.198-.056q-.1-.025-.202-.045-.1-.02-.203-.036-.102-.015-.204-.026-.103-.01-.206-.015-.103-.005-.206-.005t-.206.005q-.103.005-.206.016-.102.01-.204.025-.102.015-.203.036-.101.02-.202.045-.1.026-.198.056-.099.03-.196.065-.097.036-.192.075-.096.04-.189.085-.093.045-.184.094-.09.049-.18.103-.088.053-.173.111-.086.058-.169.12-.083.063-.162.129-.08.066-.157.136-.076.07-.149.144-.073.074-.142.15-.07.078-.135.159-.065.08-.126.164-.062.084-.12.17-.056.088-.11.177-.053.09-.101.182-.049.092-.093.186t-.083.19q-.04.097-.074.195-.035.098-.065.198t-.055.201q-.025.102-.045.204-.02.102-.036.205-.015.104-.025.207-.01.104-.015.209-.005.104-.005.208t.005.209q.005.104.015.208.01.103.025.207.016.103.036.205.02.103.045.204.025.1.055.2t.065.199q.034.098.074.194.04.097.083.191.044.094.093.186.048.092.101.182.053.09.11.176.058.087.12.17.06.084.126.165.066.08.135.158.07.077.142.151.073.074.15.144.076.07.156.136.08.067.162.129.083.062.169.12.085.058.174.111.088.054.18.103.09.05.183.094.093.045.189.085.095.04.192.075.097.035.196.065.098.03.198.056.1.025.202.045.1.02.203.036.102.015.204.026.103.01.206.015.103.005.206.005z"
            fill-rule="evenodd" fill="#000" style="mix-blend-mode:passthrough" />
        <path
            d="M172.976 69.793C163.82 77.454 158 88.935 158 101.766q0 19.924 13.386 38.78l-.003.001q-2.137-3.01-3.932-6.047L96 143.006l6.603 8.584a14.191 14.191 0 00-1.332-.294l-4.81-.817a13.998 13.998 0 01-11.516-11.818l-.691-4.83a14 14 0 00-3.85-7.805l-3.412-3.488a14 14 0 01-2.37-16.33l2.28-4.313a14 14 0 001.472-8.578l-.71-4.827a14 14 0 017.682-14.605l4.38-2.15a14 14 0 006.233-6.073l2.263-4.323a14 14 0 0114.798-7.3l4.807.835a14 14 0 008.613-1.25l4.371-2.167a14 14 0 0116.263 2.792l3.4 3.501a14 14 0 007.702 4.052l4.81.816a14 14 0 019.99 7.175z"
            fill-rule="evenodd" fill="#000" fill-opacity=".5" style="mix-blend-mode:passthrough" />
        <path
            d="M78.999 124.59C48.701 155.29 30 197.461 30 244h86v-46.619L180 205l20-26 20 26 64-7.619V244h86c0-28.528-7.027-55.414-19.444-79.023h-63.461L304 143l-50.681-6.033c5.21-17.343 23.283-21.51 38.415-10.939q1.034-12.752 6.215-20.99C270.262 85.485 236.472 74 200 74c-11.692 0-23.108 1.18-34.136 3.428A41.416 41.416 0 00158 101.766q0 19.924 13.386 38.78l-.003.001q-2.137-3.01-3.932-6.047L96 143.006l6.603 8.584a14.001 14.001 0 00-1.331-.294l-4.81-.817a13.998 13.998 0 01-11.516-11.818l-.692-4.83a14 14 0 00-3.85-7.805l-1.405-1.436z"
            fill-rule="evenodd" fill="#000" fill-opacity=".1" style="mix-blend-mode:passthrough" />
        <path d="M180 205l20-26-84-10-20 26 84 10z" fill="#000" fill-opacity=".3" style="mix-blend-mode:passthrough" />
        <path d="M200 179l-20 26-64-7.619V253l84 10v-84z" fill-rule="evenodd" fill="#000" fill-opacity=".5"
            style="mix-blend-mode:passthrough" />
        <path d="M220 205l-20-26 84-10 20 26-84 10z" fill="#000" fill-opacity=".4" style="mix-blend-mode:passthrough" />
        <path d="M200 263l84-10v-55.619L220 205l-20-26v84z" fill-rule="evenodd" fill="#000" fill-opacity=".6"
            style="mix-blend-mode:passthrough" />
        <path d="M200 169v10l84-10-73.37-8.735Q205.702 164.664 200 169z" fill-rule="evenodd" fill="#000"
            fill-opacity=".2" style="mix-blend-mode:passthrough" />
    </g>
</svg>