<svg xmlns="http://www.w3.org/2000/svg" fill="none" version="1.1" width="400"
     height="300" viewBox="0 0 400 300">
    <defs>
        <clipPath id="master_svg0_57_477">
            <rect x="0" y="0" width="400" height="300" rx="0" />
        </clipPath>
    </defs>
    <g clip-path="url(#master_svg0_57_477)">
        <g>
            <path
                d="M141.026,125.977C141.204,125.977,141.39,125.9773,141.584,125.97749999999999C149.82999999999998,125.9888,171.212,126.01820000000001,171.212,106.989Q171.212,87.5149,148.816,87.028C149.209,85.5001,149.571,83.62434999999999,149.78300000000002,81.53875C165.655,76.63842,182.519,74,200,74C253.755,74,301.683,98.9499,332.835,137.90109999999999C332.348,137.88389999999998,331.861,137.8333,331.377,137.749L327.691,137.1068C323.093,136.3059,318.506,138.5755,316.342,142.7224L314.606,146.0475C313.548,148.07479999999998,311.874,149.7113,309.826,150.7197L306.468,152.37369999999999C302.279,154.4364,299.898,158.9771,300.577,163.608L301.121,167.3212C301.453,169.5852,301.058,171.8963,299.992,173.9195L298.244,177.238C296.064,181.376,296.798,186.453,300.061,189.8L302.678,192.483C304.273,194.119,305.307,196.221,305.63,198.487L306.161,202.202C306.822,206.836,310.391,210.51,314.992,211.293L318.681,211.922C320.93,212.305,322.999,213.396,324.588,215.038L327.194,217.732C330.444,221.09,335.484,221.958,339.665,219.879L343.018,218.212C345.062,217.195,347.375,216.859,349.623,217.251L353.31,217.893C357.907,218.694,362.494,216.425,364.658,212.278L366.386,208.966C368.755,220.272,370,231.99,370,244L266.999,244C267,243.944,267,243.887,267,243.831L267,206C267,199.373,261.627,194,255,194L199,194C192.373,194,187,199.373,187,206L187,244L30,244C30,198.15800000000002,48.1455,156.553,77.64580000000001,125.977L141.026,125.977ZM211,230Q211.197,230,211.392,229.981Q211.588,229.961,211.78,229.923Q211.973,229.885,212.161,229.828Q212.349,229.771,212.531,229.695Q212.712,229.62,212.886,229.528Q213.059,229.435,213.222,229.326Q213.386,229.217,213.538,229.092Q213.689,228.967,213.828,228.828Q213.967,228.689,214.092,228.538Q214.217,228.386,214.326,228.222Q214.435,228.059,214.528,227.886Q214.62,227.712,214.695,227.531Q214.771,227.349,214.828,227.161Q214.885,226.973,214.923,226.78Q214.961,226.588,214.981,226.392Q215,226.197,215,226Q215,225.803,214.981,225.608Q214.961,225.412,214.923,225.22Q214.885,225.027,214.828,224.839Q214.771,224.651,214.696,224.469Q214.62,224.288,214.528,224.114Q214.435,223.941,214.326,223.778Q214.217,223.614,214.092,223.462Q213.967,223.311,213.828,223.172Q213.689,223.033,213.538,222.908Q213.386,222.783,213.222,222.674Q213.059,222.565,212.886,222.472Q212.712,222.38,212.531,222.304Q212.349,222.229,212.161,222.172Q211.973,222.115,211.78,222.077Q211.588,222.039,211.392,222.019Q211.197,222,211,222Q210.803,222,210.608,222.019Q210.412,222.039,210.22,222.077Q210.027,222.115,209.839,222.172Q209.651,222.229,209.469,222.304Q209.288,222.38,209.114,222.472Q208.941,222.565,208.778,222.674Q208.614,222.783,208.462,222.908Q208.311,223.033,208.172,223.172Q208.033,223.311,207.908,223.462Q207.783,223.614,207.674,223.778Q207.565,223.941,207.472,224.114Q207.38,224.288,207.304,224.469Q207.229,224.651,207.172,224.839Q207.115,225.027,207.077,225.22Q207.039,225.412,207.019,225.608Q207,225.803,207,226Q207,226.197,207.019,226.392Q207.039,226.588,207.077,226.78Q207.115,226.973,207.172,227.161Q207.229,227.349,207.304,227.531Q207.38,227.712,207.472,227.886Q207.565,228.059,207.674,228.222Q207.783,228.386,207.908,228.538Q208.033,228.689,208.172,228.828Q208.311,228.967,208.462,229.092Q208.614,229.217,208.778,229.326Q208.941,229.435,209.114,229.528Q209.288,229.62,209.469,229.695Q209.651,229.771,209.839,229.828Q210.027,229.885,210.22,229.923Q210.412,229.961,210.608,229.981Q210.803,230,211,230ZM227,230Q227.197,230,227.392,229.981Q227.588,229.961,227.78,229.923Q227.973,229.885,228.161,229.828Q228.349,229.771,228.531,229.695Q228.712,229.62,228.886,229.528Q229.059,229.435,229.222,229.326Q229.386,229.217,229.538,229.092Q229.689,228.967,229.828,228.828Q229.967,228.689,230.092,228.538Q230.217,228.386,230.326,228.222Q230.435,228.059,230.528,227.886Q230.62,227.712,230.696,227.531Q230.771,227.349,230.828,227.161Q230.885,226.973,230.923,226.78Q230.961,226.588,230.981,226.392Q231,226.197,231,226Q231,225.803,230.981,225.608Q230.961,225.412,230.923,225.22Q230.885,225.027,230.828,224.839Q230.771,224.651,230.696,224.469Q230.62,224.288,230.528,224.114Q230.435,223.941,230.326,223.778Q230.217,223.614,230.092,223.462Q229.967,223.311,229.828,223.172Q229.689,223.033,229.538,222.908Q229.386,222.783,229.222,222.674Q229.059,222.565,228.886,222.472Q228.712,222.38,228.531,222.304Q228.349,222.229,228.161,222.172Q227.973,222.115,227.78,222.077Q227.588,222.039,227.392,222.019Q227.197,222,227,222Q226.803,222,226.608,222.019Q226.412,222.039,226.22,222.077Q226.027,222.115,225.839,222.172Q225.651,222.229,225.469,222.304Q225.288,222.38,225.114,222.472Q224.941,222.565,224.778,222.674Q224.614,222.783,224.462,222.908Q224.311,223.033,224.172,223.172Q224.033,223.311,223.908,223.462Q223.783,223.614,223.674,223.778Q223.565,223.941,223.472,224.114Q223.38,224.288,223.304,224.469Q223.229,224.651,223.172,224.839Q223.115,225.027,223.077,225.22Q223.039,225.412,223.019,225.608Q223,225.803,223,226Q223,226.197,223.019,226.392Q223.039,226.588,223.077,226.78Q223.115,226.973,223.172,227.161Q223.229,227.349,223.304,227.531Q223.38,227.712,223.472,227.886Q223.565,228.059,223.674,228.222Q223.783,228.386,223.908,228.538Q224.033,228.689,224.172,228.828Q224.311,228.967,224.462,229.092Q224.614,229.217,224.778,229.326Q224.941,229.435,225.114,229.528Q225.288,229.62,225.469,229.695Q225.651,229.771,225.839,229.828Q226.027,229.885,226.22,229.923Q226.412,229.961,226.608,229.981Q226.803,230,227,230ZM243,230Q243.197,230,243.392,229.981Q243.588,229.961,243.78,229.923Q243.973,229.885,244.161,229.828Q244.349,229.771,244.531,229.695Q244.712,229.62,244.886,229.528Q245.059,229.435,245.222,229.326Q245.386,229.217,245.538,229.092Q245.689,228.967,245.828,228.828Q245.967,228.689,246.092,228.538Q246.217,228.386,246.326,228.222Q246.435,228.059,246.528,227.886Q246.62,227.712,246.695,227.531Q246.771,227.349,246.828,227.161Q246.885,226.973,246.923,226.78Q246.961,226.588,246.981,226.392Q247,226.197,247,226Q247,225.803,246.981,225.608Q246.961,225.412,246.923,225.22Q246.885,225.027,246.828,224.839Q246.771,224.651,246.696,224.469Q246.62,224.288,246.528,224.114Q246.435,223.941,246.326,223.778Q246.217,223.614,246.092,223.462Q245.967,223.311,245.828,223.172Q245.689,223.033,245.538,222.908Q245.386,222.783,245.222,222.674Q245.059,222.565,244.886,222.472Q244.712,222.38,244.531,222.304Q244.349,222.229,244.161,222.172Q243.973,222.115,243.78,222.077Q243.588,222.039,243.392,222.019Q243.197,222,243,222Q242.803,222,242.608,222.019Q242.412,222.039,242.22,222.077Q242.027,222.115,241.839,222.172Q241.651,222.229,241.469,222.304Q241.288,222.38,241.114,222.472Q240.941,222.565,240.778,222.674Q240.614,222.783,240.462,222.908Q240.311,223.033,240.172,223.172Q240.033,223.311,239.908,223.462Q239.783,223.614,239.674,223.778Q239.565,223.941,239.472,224.114Q239.38,224.288,239.304,224.469Q239.229,224.651,239.172,224.839Q239.115,225.027,239.077,225.22Q239.039,225.412,239.019,225.608Q239,225.803,239,226Q239,226.197,239.019,226.392Q239.039,226.588,239.077,226.78Q239.115,226.973,239.172,227.161Q239.229,227.349,239.304,227.531Q239.38,227.712,239.472,227.886Q239.565,228.059,239.674,228.222Q239.783,228.386,239.908,228.538Q240.033,228.689,240.172,228.828Q240.311,228.967,240.462,229.092Q240.614,229.217,240.778,229.326Q240.941,229.435,241.114,229.528Q241.288,229.62,241.469,229.695Q241.651,229.771,241.839,229.828Q242.027,229.885,242.22,229.923Q242.412,229.961,242.608,229.981Q242.803,230,243,230Z"
                fill-rule="evenodd" fill="#000000" fill-opacity="0.10000000149011612"
                style="mix-blend-mode:passthrough" />
        </g>
        <g>
            <path
                d="M145.58198046875,218.44097900390625L130.97998046875,218.44097900390625L130.97998046875,231.99997900390625L145.58198046875,218.44097900390625Z"
                fill="#000000" fill-opacity="0.25" style="mix-blend-mode:passthrough" />
        </g>
        <g>
            <path
                d="M245.4290008544922,173.83099365234375L256.44900085449217,173.83099365234375L256.44900085449217,183.99999365234376L245.4290008544922,173.83099365234375Z"
                fill="#000000" fill-opacity="0.44999998807907104" style="mix-blend-mode:passthrough" />
        </g>
        <g>
            <path d="M199,255.83099365234375L199,269.35899365234377L213.5686,255.83099365234375L199,255.83099365234375Z"
                fill-rule="evenodd" fill="#000000" fill-opacity="0.800000011920929"
                style="mix-blend-mode:passthrough" />
        </g>
        <g>
            <path
                d="M118,218.441L118,150C118,142.26801,124.268,136,132,136L224,136L224,194L199,194C192.373,194,187,199.373,187,206L187,218.441L118,218.441Z"
                fill-rule="evenodd" fill="#000000" fill-opacity="0.4000000059604645"
                style="mix-blend-mode:passthrough" />
        </g>
        <g>
            <path
                d="M267,173.83100000000002L267,122.5C267,116.701,262.299,112,256.5,112L187,112L187,136L224,136L224,173.83100000000002L267,173.83100000000002Z"
                fill-rule="evenodd" fill="#000000" fill-opacity="0.6499999761581421"
                style="mix-blend-mode:passthrough" />
        </g>
        <g>
            <path
                d="M267,243.83100000000002L267,206C267,199.373,261.627,194,255,194L199,194C192.373,194,187,199.373,187,206L187,255.83100000000002L255,255.83100000000002C261.627,255.83100000000002,267,250.458,267,243.83100000000002ZM211,230Q211.19650000000001,230,211.3921,229.9807Q211.5876,229.9615,211.7804,229.9231Q211.9731,229.88479999999998,212.1611,229.8278Q212.3492,229.7707,212.5307,229.6955Q212.7123,229.6203,212.8856,229.5277Q213.0589,229.4351,213.2223,229.3259Q213.38569999999999,229.2167,213.5376,229.09199999999998Q213.6895,228.9674,213.8284,228.8284Q213.9674,228.6895,214.09199999999998,228.5376Q214.2167,228.38569999999999,214.3259,228.2223Q214.4351,228.0589,214.5277,227.8856Q214.6203,227.7123,214.6955,227.5307Q214.7707,227.3492,214.8278,227.1611Q214.88479999999998,226.9731,214.9231,226.7804Q214.9615,226.5876,214.9807,226.3921Q215,226.19650000000001,215,226Q215,225.80349999999999,214.9807,225.6079Q214.9615,225.4124,214.9231,225.2196Q214.88479999999998,225.0269,214.8278,224.8389Q214.7707,224.6508,214.6955,224.4693Q214.6203,224.2877,214.5277,224.1144Q214.4351,223.9411,214.3259,223.7777Q214.2167,223.61430000000001,214.09199999999998,223.4624Q213.9674,223.3105,213.8284,223.1716Q213.6895,223.0326,213.5376,222.90800000000002Q213.38569999999999,222.7833,213.2223,222.6741Q213.0589,222.5649,212.8856,222.4723Q212.7123,222.3797,212.5307,222.3045Q212.3492,222.2293,212.1611,222.1722Q211.9731,222.11520000000002,211.7804,222.0769Q211.5876,222.0385,211.3921,222.0193Q211.19650000000001,222,211,222Q210.80349999999999,222,210.6079,222.0193Q210.4124,222.0385,210.2196,222.0769Q210.0269,222.11520000000002,209.8389,222.1722Q209.6508,222.2293,209.4693,222.3045Q209.2877,222.3797,209.1144,222.4723Q208.9411,222.5649,208.7777,222.6741Q208.61430000000001,222.7833,208.4624,222.90800000000002Q208.3105,223.0326,208.1716,223.1716Q208.0326,223.3105,207.90800000000002,223.4624Q207.7833,223.61430000000001,207.6741,223.7777Q207.5649,223.9411,207.4723,224.1144Q207.3797,224.2877,207.3045,224.4693Q207.2293,224.6508,207.1722,224.8389Q207.11520000000002,225.0269,207.0769,225.2196Q207.0385,225.4124,207.0193,225.6079Q207,225.80349999999999,207,226Q207,226.19650000000001,207.0193,226.3921Q207.0385,226.5876,207.0769,226.7804Q207.11520000000002,226.9731,207.1722,227.1611Q207.2293,227.3492,207.3045,227.5307Q207.3797,227.7123,207.4723,227.8856Q207.5649,228.0589,207.6741,228.2223Q207.7833,228.38569999999999,207.90800000000002,228.5376Q208.0326,228.6895,208.1716,228.8284Q208.3105,228.9674,208.4624,229.09199999999998Q208.61430000000001,229.2167,208.7777,229.3259Q208.9411,229.4351,209.1144,229.5277Q209.2877,229.6203,209.4693,229.6955Q209.6508,229.7707,209.8389,229.8278Q210.0269,229.88479999999998,210.2196,229.9231Q210.4124,229.9615,210.6079,229.9807Q210.80349999999999,230,211,230ZM227,230Q227.19650000000001,230,227.3921,229.9807Q227.5876,229.9615,227.7804,229.9231Q227.9731,229.88479999999998,228.1611,229.8278Q228.3492,229.7707,228.5307,229.6955Q228.7123,229.6203,228.8856,229.5277Q229.0589,229.4351,229.2223,229.3259Q229.38569999999999,229.2167,229.5376,229.09199999999998Q229.6895,228.9674,229.8284,228.8284Q229.9674,228.6895,230.09199999999998,228.5376Q230.2167,228.38569999999999,230.3259,228.2223Q230.4351,228.0589,230.5277,227.8856Q230.6203,227.7123,230.6955,227.5307Q230.7707,227.3492,230.8278,227.1611Q230.88479999999998,226.9731,230.9231,226.7804Q230.9615,226.5876,230.9807,226.3921Q231,226.19650000000001,231,226Q231,225.80349999999999,230.9807,225.6079Q230.9615,225.4124,230.9231,225.2196Q230.88479999999998,225.0269,230.8278,224.8389Q230.7707,224.6508,230.6955,224.4693Q230.6203,224.2877,230.5277,224.1144Q230.4351,223.9411,230.3259,223.7777Q230.2167,223.61430000000001,230.09199999999998,223.4624Q229.9674,223.3105,229.8284,223.1716Q229.6895,223.0326,229.5376,222.90800000000002Q229.38569999999999,222.7833,229.2223,222.6741Q229.0589,222.5649,228.8856,222.4723Q228.7123,222.3797,228.5307,222.3045Q228.3492,222.2293,228.1611,222.1722Q227.9731,222.11520000000002,227.7804,222.0769Q227.5876,222.0385,227.3921,222.0193Q227.19650000000001,222,227,222Q226.80349999999999,222,226.6079,222.0193Q226.4124,222.0385,226.2196,222.0769Q226.0269,222.11520000000002,225.8389,222.1722Q225.6508,222.2293,225.4693,222.3045Q225.2877,222.3797,225.1144,222.4723Q224.9411,222.5649,224.7777,222.6741Q224.61430000000001,222.7833,224.4624,222.90800000000002Q224.3105,223.0326,224.1716,223.1716Q224.0326,223.3105,223.90800000000002,223.4624Q223.7833,223.61430000000001,223.6741,223.7777Q223.5649,223.9411,223.4723,224.1144Q223.3797,224.2877,223.3045,224.4693Q223.2293,224.6508,223.1722,224.8389Q223.11520000000002,225.0269,223.0769,225.2196Q223.0385,225.4124,223.0193,225.6079Q223,225.80349999999999,223,226Q223,226.19650000000001,223.0193,226.3921Q223.0385,226.5876,223.0769,226.7804Q223.11520000000002,226.9731,223.1722,227.1611Q223.2293,227.3492,223.3045,227.5307Q223.3797,227.7123,223.4723,227.8856Q223.5649,228.0589,223.6741,228.2223Q223.7833,228.38569999999999,223.90800000000002,228.5376Q224.0326,228.6895,224.1716,228.8284Q224.3105,228.9674,224.4624,229.09199999999998Q224.61430000000001,229.2167,224.7777,229.3259Q224.9411,229.4351,225.1144,229.5277Q225.2877,229.6203,225.4693,229.6955Q225.6508,229.7707,225.8389,229.8278Q226.0269,229.88479999999998,226.2196,229.9231Q226.4124,229.9615,226.6079,229.9807Q226.80349999999999,230,227,230ZM243,230Q243.19650000000001,230,243.3921,229.9807Q243.5876,229.9615,243.7804,229.9231Q243.9731,229.88479999999998,244.1611,229.8278Q244.3492,229.7707,244.5307,229.6955Q244.7123,229.6203,244.8856,229.5277Q245.0589,229.4351,245.2223,229.3259Q245.38569999999999,229.2167,245.5376,229.09199999999998Q245.6895,228.9674,245.8284,228.8284Q245.9674,228.6895,246.09199999999998,228.5376Q246.2167,228.38569999999999,246.3259,228.2223Q246.435,228.0589,246.5277,227.8856Q246.6203,227.7123,246.6955,227.5307Q246.7707,227.3492,246.8278,227.1611Q246.88479999999998,226.9731,246.9231,226.7804Q246.9615,226.5876,246.9807,226.3921Q247,226.19650000000001,247,226Q247,225.80349999999999,246.9807,225.6079Q246.9615,225.4124,246.9231,225.2196Q246.88479999999998,225.0269,246.8278,224.8389Q246.7707,224.6508,246.6955,224.4693Q246.6203,224.2877,246.5277,224.1144Q246.435,223.9411,246.3259,223.7777Q246.2167,223.61430000000001,246.09199999999998,223.4624Q245.9674,223.3105,245.8284,223.1716Q245.6895,223.0326,245.5376,222.90800000000002Q245.38569999999999,222.7833,245.2223,222.6741Q245.0589,222.5649,244.8856,222.4723Q244.7123,222.3797,244.5307,222.3045Q244.3492,222.2293,244.1611,222.1722Q243.9731,222.11520000000002,243.7804,222.0769Q243.5876,222.0385,243.3921,222.0193Q243.19650000000001,222,243,222Q242.80349999999999,222,242.6079,222.0193Q242.4124,222.0385,242.2196,222.0769Q242.0269,222.11520000000002,241.8389,222.1722Q241.6508,222.2293,241.4693,222.3045Q241.2877,222.3797,241.1144,222.4723Q240.9411,222.5649,240.7777,222.6741Q240.61430000000001,222.7833,240.4624,222.90800000000002Q240.3105,223.0326,240.1716,223.1716Q240.0326,223.3105,239.90800000000002,223.4624Q239.7833,223.61430000000001,239.6741,223.7777Q239.5649,223.9411,239.4723,224.1144Q239.3797,224.2877,239.3045,224.4693Q239.2293,224.6508,239.1722,224.8389Q239.11520000000002,225.0269,239.0769,225.2196Q239.0385,225.4124,239.0193,225.6079Q239,225.80349999999999,239,226Q239,226.19650000000001,239.0193,226.3921Q239.0385,226.5876,239.0769,226.7804Q239.11520000000002,226.9731,239.1722,227.1611Q239.2293,227.3492,239.3045,227.5307Q239.3797,227.7123,239.4723,227.8856Q239.5649,228.0589,239.6741,228.2223Q239.7833,228.38569999999999,239.90800000000002,228.5376Q240.0326,228.6895,240.1716,228.8284Q240.3105,228.9674,240.4624,229.09199999999998Q240.61430000000001,229.2167,240.7777,229.3259Q240.9411,229.4351,241.1144,229.5277Q241.2877,229.6203,241.4693,229.6955Q241.6508,229.7707,241.8389,229.8278Q242.0269,229.88479999999998,242.2196,229.9231Q242.4124,229.9615,242.6079,229.9807Q242.80349999999999,230,243,230Z"
                fill-rule="evenodd" fill="#000000" fill-opacity="1" style="mix-blend-mode:passthrough" />
        </g>
        <g>
            <path
                d="M141.0259580383301,125.977C148.81595803833008,125.977,171.21195803833007,126.464,171.21195803833007,106.989Q171.21195803833007,87.5149,148.81595803833008,87.02799999999999C151.44495803833007,76.8038,152.7109580383301,51,116.68295803833009,51Q80.65485803833008,51,77.73375803833008,87.02799999999999C61.23205803833008,75.5,41.231998038330076,81.5,38.231998038330076,103C35.231998038330076,124.5,62.153958038330074,125.977,70.91765803833007,125.977L141.0259580383301,125.977Z"
                fill="#000000" fill-opacity="0.4000000059604645" style="mix-blend-mode:passthrough" />
        </g>
        <g>
            <path
                d="M380.9392,165.2L378.32259999999997,162.517C376.7275,160.8811,375.693,158.778,375.3694,156.5128L374.8395,152.7975C374.1777,148.164,370.6086,144.4896,366.0082,143.70633L362.3195,143.07824C360.0703,142.69531,358.0013,141.60375,356.4123,139.9618L353.8057,137.26868C350.5557,133.9100802,345.515,133.041914,341.334,135.12064L337.98199999999997,136.78751C335.9383,137.80376,333.6247,138.14054,331.377,137.74899L327.6906,137.10683C323.0929,136.30589,318.5062,138.57555,316.3419,142.72239L314.6065,146.0475C313.5483,148.0748,311.874,149.7113,309.8263,150.7197L306.46757,152.37369999999999C302.27883,154.4364,299.89807,158.977,300.57698,163.608L301.12146,167.3212C301.45336,169.5852,301.05773,171.8963,299.99201,173.9195L298.24393,177.2379C296.063938,181.3764,296.79845,186.4534,300.06134,189.7997L302.6776,192.4828C304.27278,194.119,305.30698,196.22129999999999,305.63029,198.48669999999998L306.16066,202.2022C306.82193,206.8361,310.3913,210.51,314.9917,211.29309999999998L318.6806,211.9216C320.9298,212.3046,322.9988,213.3962,324.5878,215.0378L327.1937,217.7317C330.4437,221.09019999999998,335.4843,221.9579,339.6653,219.8794L343.0181,218.2124C345.0618,217.19549999999998,347.3755,216.85930000000002,349.6232,217.2509L353.3095,217.89319999999998C357.9069,218.69400000000002,362.4936,216.4247,364.6577,212.27769999999998L366.3931,208.95229999999998C367.45140000000004,206.9246,369.1263,205.2884,371.1738,204.2799L374.5327,202.626C378.7206,200.5629,381.1018,196.0228,380.4231,191.392L379.8786,187.6788C379.5465,185.4142,379.9415,183.1034,381.0082,181.0803L382.7559,177.7618C384.9361,173.6233,384.2015,168.5461,380.9392,165.2Z"
                fill="#000000" fill-opacity="0.30000001192092896" style="mix-blend-mode:passthrough" />
        </g>
    </g>
</svg>